<svg xmlns="http://www.w3.org/2000/svg">
  <defs>
    <clipPath id="clip-bus">
      <rect width="17.0398" height="19.2" fill="none" transform="translate(0.0795898 0.919922)"/>
    </clipPath>
    <clipPath id="clip-aircraft">
      <rect width="20.8265" height="21.12" fill="none" transform="translate(0 0.959961)"/>
    </clipPath>
  </defs>
  <symbol id="menu-burger" viewBox="0 0 25 11" fill="currentColor">
    <rect
      width="25"
      height="3"
      rx="1.5"/>
    <rect
      y="8"
      width="25"
      height="3"
      rx="1.5"/>
  </symbol>
  <symbol id="menu-close" viewBox="0 0 20 20">
    <line x1="0" y1="0" x2="20" y2="20" stroke="#CCCCCC" stroke-width="2"/>
    <line x1="20" y1="0" x2="0" y2="20" stroke="#CCCCCC" stroke-width="2"/>
  </symbol>
  <symbol id="auth-phone" viewBox="0 0 18 18">
    <path
      d="M8.97418 7.42388C8.97418 7.61288 9.12781 7.76138 9.31556 7.76138C9.70474 7.76138 10.0188 8.07526 10.0188 8.45663C10.0188 8.64225 10.1724 8.79413 10.3602 8.79413C10.5479 8.79413 10.7016 8.64225 10.7016 8.45663C10.7016 7.70064 10.0802 7.08638 9.31556 7.08638C9.12781 7.08638 8.97418 7.23826 8.97418 7.42388ZM14.5318 8.79413C14.723 8.79413 14.8732 8.64225 14.8732 8.45663C14.8732 5.42589 12.3811 2.96214 9.31556 2.96214C9.12781 2.96214 8.97418 3.114 8.97418 3.29964C8.97418 3.48526 9.12781 3.63714 9.31556 3.63714C12.0056 3.63714 14.1905 5.80051 14.1905 8.45663C14.1905 8.64225 14.3441 8.79413 14.5318 8.79413Z"
      fill="#161C35"/>
    <path
      d="M12.1046 8.45663C12.1046 8.64225 12.2582 8.79413 12.446 8.79413C12.6338 8.79413 12.7874 8.64225 12.7874 8.45663C12.7874 6.56326 11.2307 5.02426 9.31554 5.02426C9.12779 5.02426 8.97416 5.17614 8.97416 5.36176C8.97416 5.55076 9.12779 5.69926 9.31554 5.69926C10.8552 5.69926 12.1046 6.93788 12.1046 8.45663ZM9.31554 0.900002C9.12779 0.900002 8.97416 1.05188 8.97416 1.2375C8.97416 1.42314 9.12779 1.575 9.31554 1.575C13.1561 1.575 16.2797 4.66314 16.2797 8.45663C16.2797 8.64225 16.4299 8.79413 16.6211 8.79413C16.8088 8.79413 16.9624 8.64225 16.9624 8.45663C16.9624 4.28852 13.5316 0.900002 9.31554 0.900002ZM12.6508 12.0139L12.2036 12.2535C11.4492 12.6619 10.8621 13.7813 9.93104 12.9375L7.5 10.5L5.39993 8.45663C4.34484 7.1235 5.52624 6.80625 5.9393 6.05701L6.18168 5.61827C6.45478 5.11875 6.55377 4.55851 6.47185 3.99825C6.39333 3.43801 6.1373 2.92838 5.72764 2.52338C5.22924 2.03064 4.56696 1.76064 3.86031 1.76064C3.15365 1.76064 2.48796 2.03064 1.98953 2.52338L1.81545 2.69888C0.893721 3.61014 0.787894 5.1795 1.51503 7.1235C2.20119 8.97975 3.58379 10.9913 5.39993 12.7868C8.16851 15.5239 11.2512 17.1 13.4633 17.1C14.3372 17.1 15.078 16.8536 15.6037 16.3339L15.7813 16.1584C16.2763 15.669 16.5528 15.0143 16.5562 14.3089C16.5528 13.6204 16.2694 12.9454 15.7813 12.4628C14.9585 11.6494 13.6715 11.4671 12.6508 12.0139Z"
      fill="#161C35"/>
  </symbol>
  <symbol id="auth-mail" viewBox="0 0 16 14">
    <path
      d="M1.25913 2.60026L7.25913 6.36066C7.46073 6.48666 7.72153 6.54639 7.98393 6.54639C8.24633 6.54639 8.50713 6.48666 8.70873 6.36066L14.7087 2.60026C15.0999 2.35479 15.4695 1.39999 14.7519 1.39999H1.21673C0.499128 1.39999 0.868728 2.35479 1.25913 2.60026ZM14.8903 4.65639L8.70873 8.41493C8.43673 8.58106 8.24633 8.60066 7.98393 8.60066C7.72153 8.60066 7.53113 8.58106 7.25913 8.41493C6.98713 8.24879 1.55273 4.92519 1.10873 4.65546C0.796728 4.46506 0.799928 4.68813 0.799928 4.85986V11.6667C0.799928 12.0587 1.25273 12.6 1.59993 12.6H14.3999C14.7471 12.6 15.1999 12.0587 15.1999 11.6667V4.86079C15.1999 4.68906 15.2031 4.46599 14.8903 4.65639Z"
      fill="#161C35"/>
  </symbol>
  <symbol id="menu-phone" viewBox="0 0 36 34" fill="currentColor">
    <path
      fill-rule="evenodd" clip-rule="evenodd"
      d="M17.9999 2.17236C12.407 2.17236 6.80065 3.1177 4.76644 5.00191C3.07869 6.56509 2.51608 9.32664 2.32643 11.0751C2.32643 11.0751 2.30029 11.2479 2.30029 11.3222C2.30029 12.0079 2.88889 12.5578 3.60853 12.5578C3.69357 12.5578 6.84004 12.3168 8.73702 12.1686C8.78267 12.1623 8.82868 12.1562 8.87433 12.1439C9.58086 12.1255 10.1501 11.5817 10.1501 10.9083L10.1564 8.47406C10.1564 7.72035 10.8043 7.11481 11.6024 7.11481H24.3973C25.1956 7.11481 25.8435 7.72028 25.8435 8.47406L25.8499 10.9083C25.8499 11.5817 26.4191 12.1255 27.1255 12.1439C27.1709 12.1563 27.2169 12.1623 27.2631 12.1686C29.1602 12.3167 32.3066 12.5578 32.3913 12.5578C33.1107 12.5578 33.6997 12.0079 33.6997 11.3222C33.6997 11.2479 33.6736 11.0751 33.6736 11.0751C33.4838 9.32664 32.9218 6.56516 31.234 5.00191C29.1991 3.1177 23.5928 2.17236 17.9999 2.17236ZM17.9999 18.2355C16.5542 18.2355 15.3833 19.3413 15.3833 20.7067C15.3833 22.0721 16.5542 23.1778 17.9999 23.1778C19.4456 23.1778 20.6165 22.0721 20.6165 20.7067C20.6165 19.3413 19.4456 18.2355 17.9999 18.2355ZM16.0375 12.6751V11.1306C16.0375 10.2781 15.3047 9.58613 14.4021 9.58613C13.4995 9.58613 12.7668 10.2782 12.7668 11.1306V12.6751L3.94189 21.5779C3.33378 22.1402 2.95427 22.9245 2.95427 23.7897V26.2671C2.95427 27.6325 4.12528 28.7383 5.57089 28.7383H6.22509V30.2829C6.22509 31.1354 6.9579 31.8273 7.8605 31.8273C8.76309 31.8273 9.49583 31.1354 9.49583 30.2829V28.7383H26.504V30.2829C26.504 31.1354 27.2365 31.8273 28.1394 31.8273C29.042 31.8273 29.7746 31.1354 29.7746 30.2829V28.7383H30.4288C31.8745 28.7383 33.0454 27.6325 33.0454 26.2671V23.7897C33.0454 22.9245 32.6659 22.1401 32.0578 21.5779L23.2332 12.6751V11.1306C23.2332 10.2781 22.5003 9.58613 21.5977 9.58613C20.6951 9.58613 19.9625 10.2782 19.9625 11.1306V12.6751H16.0375ZM17.9999 15.7643C20.8913 15.7643 23.2332 17.976 23.2332 20.7067C23.2332 23.4375 20.8913 25.6494 17.9999 25.6494C15.1085 25.6494 12.7667 23.4375 12.7667 20.7067C12.7667 17.976 15.1085 15.7643 17.9999 15.7643Z"/>
  </symbol>
  <symbol id="menu-mail" viewBox="0 0 37 26" fill="currentColor">
    <path
      fill-rule="evenodd" clip-rule="evenodd"
      d="M32.2786 20.9327L23.6177 13L32.2786 5.06731L31.0976 3.80529L18.4999 15.3438L5.90234 3.80529L4.72131 5.06731L13.3822 13L4.72131 20.9327L5.90234 22.1947L14.6616 14.1719L18.4999 17.6875L22.3383 14.1719L31.0976 22.1947L32.2786 20.9327ZM3.15187 0.5C1.53384 0.5 0.222168 1.89768 0.222168 3.61572V22.3843C0.222168 24.105 1.5232 25.5 3.15187 25.5H33.848C35.4661 25.5 36.7777 24.1023 36.7777 22.3843V3.61572C36.7777 1.89496 35.4767 0.5 33.848 0.5H3.15187Z"/>
  </symbol>
  <symbol id="arrow-forward" viewBox="0 0 11 12" fill="currentColor">
    <path d="M10.0698 6.07495L0.157238 11.7041L0.157238 0.445786L10.0698 6.07495Z"/>
  </symbol>
  <symbol id="fb" viewBox="0 0 14 28">
    <path
      d="M9.53 27.75H2.71V14.85H0V8.47H2.63C2.43 5.58 2.93 3.47 4.15 2.03C4.73171 1.39087 5.44042 0.8802 6.23079 0.530647C7.02116 0.181094 7.87578 0.000357734 8.74 0L13.52 0V6.15H9.76C9.53848 6.90214 9.4538 7.68794 9.51 8.47H13.51V14.85H9.51L9.53 27.75ZM4.22 26.25H8V13.35H12V10H8V9.24C8 7.24 8 5.45 9 4.78L9.19 4.65H12V1.5H8.78C8.12565 1.49154 7.47682 1.62071 6.87559 1.87911C6.27436 2.13752 5.73416 2.5194 5.29 3C4.29 4.23 3.88 6.29 4.19 9.14L4.29 9.97H1.5V13.35H4.22V26.25Z"
      fill="#192144"/>
  </symbol>
  <symbol id="vk" viewBox="0 0 32 17">
    <path
      d="M25.9461 15.7775C25.2083 15.761 24.4891 15.5431 23.8661 15.1475C23.2157 14.7079 22.6184 14.1945 22.0861 13.6175C21.6461 13.1775 20.9161 12.4375 20.6361 12.4375C20.3561 12.4375 20.1561 13.3575 20.1661 14.0075C20.1703 14.4562 20.0021 14.8894 19.6961 15.2175C19.3481 15.5018 18.9234 15.6758 18.4761 15.7175H16.5561C13.7965 15.6568 11.1541 14.59 9.12606 12.7175C5.44606 9.34753 2.28606 2.90753 2.15606 2.62753C2.03206 2.39361 1.98013 2.12821 2.00683 1.86481C2.03353 1.6014 2.13765 1.35181 2.30606 1.14753C2.6872 0.829675 3.16985 0.659328 3.66606 0.667532H7.74606H7.86606C8.20364 0.716784 8.52722 0.835995 8.81606 1.01753C9.08788 1.1998 9.30552 1.45198 9.44606 1.74753C9.87724 2.6706 10.3717 3.56273 10.9261 4.41753C12.2361 6.41753 12.8161 6.87753 13.0261 6.97753C13.2597 6.03979 13.324 5.06788 13.2161 4.10753C13.2511 3.67014 13.179 3.2308 13.0061 2.82753C12.7865 2.65191 12.5169 2.55038 12.2361 2.53753L11.5061 1.84753C11.3661 1.18753 12.0961 0.617532 12.6061 0.397532C13.6238 0.0786297 14.6916 -0.0501836 15.7561 0.017532H16.4661C17.1881 -0.00127074 17.9099 0.0658674 18.6161 0.217532C20.3161 0.577532 20.2561 1.94753 20.1861 3.52753C20.1861 3.98753 20.1361 4.52753 20.1361 5.14753C20.1361 5.29753 20.1361 5.45753 20.1361 5.62753C20.0967 6.06289 20.1271 6.50174 20.2261 6.92753C21.0586 6.23108 21.7597 5.39116 22.2961 4.44753C22.875 3.55527 23.3832 2.61908 23.8161 1.64753C23.9479 1.34025 24.1739 1.08272 24.4614 0.912012C24.7489 0.741299 25.0832 0.666204 25.4161 0.697532H29.6961C29.8224 0.685471 29.9497 0.685471 30.0761 0.697532C31.0761 0.697532 31.6661 0.987532 31.9061 1.54753C32.1461 2.10753 32.0761 3.20753 29.5461 6.15753L28.5461 7.28753C28.0616 7.75797 27.6443 8.29301 27.3061 8.87753C27.6848 9.30811 28.1147 9.69093 28.5861 10.0175C29.7353 10.8835 30.7468 11.9186 31.5861 13.0875C31.7829 13.3148 31.9117 13.593 31.9576 13.8901C32.0036 14.1873 31.965 14.4914 31.8461 14.7675C31.6365 15.0734 31.3561 15.3241 31.0288 15.4982C30.7014 15.6723 30.3368 15.7647 29.9661 15.7675L26.1761 15.8175L25.9461 15.7775ZM20.6361 10.9375C21.5361 10.9375 22.3161 11.7275 23.1461 12.5575C23.5944 13.0471 24.0977 13.4833 24.6461 13.8575C25.0607 14.1333 25.5481 14.2795 26.0461 14.2775H26.1461L29.9461 14.2275C30.1335 14.2168 30.317 14.1692 30.4861 14.0875L30.3861 13.9275C29.6291 12.8959 28.7263 11.9797 27.7061 11.2075C26.5161 10.2075 25.9061 9.73753 25.8361 8.96753C25.7661 8.19753 26.3261 7.52753 27.4461 6.25753L28.4461 5.14753C29.2903 4.28639 29.9834 3.28908 30.4961 2.19753C30.2729 2.1843 30.0492 2.1843 29.8261 2.19753H25.4561C25.377 2.17986 25.2951 2.17986 25.2161 2.19753C24.7532 3.25898 24.2012 4.27929 23.5661 5.24753C21.6761 8.06753 20.7861 8.44753 20.1561 8.44753C19.9607 8.44753 19.7684 8.39945 19.5961 8.30753C18.5961 7.73753 18.5961 6.46753 18.6561 5.54753C18.6561 5.39753 18.6561 5.24753 18.6561 5.11753C18.6561 4.46753 18.6561 3.90753 18.7061 3.42753C18.7861 1.74753 18.7061 1.73753 18.3261 1.64753C17.7138 1.52655 17.09 1.4729 16.4661 1.48753H15.7761C15.1411 1.47441 14.5061 1.50784 13.8761 1.58753C13.9715 1.65784 14.0558 1.74212 14.1261 1.83753C14.5385 2.48787 14.7442 3.24794 14.7161 4.01753C14.8461 5.66753 14.7761 7.81753 13.7161 8.33753C13.5284 8.42537 13.3233 8.4698 13.1161 8.46753C12.1861 8.46753 11.2661 7.58753 9.69606 5.20753C9.09358 4.29624 8.5556 3.34392 8.08606 2.35753L8.00606 2.25753C7.90508 2.20606 7.79736 2.16903 7.68606 2.14753H3.68606H3.61606C4.20606 3.36753 7.00606 8.76753 10.1361 11.5975C11.8936 13.2122 14.1708 14.1451 16.5561 14.2275H18.4061C18.5004 14.2074 18.5914 14.1737 18.6761 14.1275C18.6761 14.1275 18.6761 14.1275 18.6761 14.0375C18.6761 13.7675 18.6761 11.4375 20.2561 11.0375C20.3784 10.9894 20.5059 10.9558 20.6361 10.9375Z"
      fill="#192144"/>
  </symbol>
  <symbol id="in" viewBox="0 0 24 24">
    <path
      d="M17.28 2.40094C18.4249 2.40347 19.5223 2.85943 20.3319 3.66904C21.1415 4.47865 21.5974 5.57598 21.6 6.72094V17.2809C21.5974 18.4259 21.1415 19.5232 20.3319 20.3328C19.5223 21.1424 18.4249 21.5984 17.28 21.6009H6.71996C5.57667 21.5959 4.48179 21.1388 3.67426 20.3295C2.86672 19.5201 2.41208 18.4242 2.40956 17.2809V6.72094C2.41208 5.57764 2.86672 4.48175 3.67426 3.67241C4.48179 2.86308 5.57667 2.406 6.71996 2.40094H17.28ZM17.28 0.960938H6.71996C5.19231 0.960938 3.72724 1.56779 2.64703 2.648C1.56682 3.72821 0.959961 5.19329 0.959961 6.72094L0.959961 17.2809C0.959961 18.8086 1.56682 20.2737 2.64703 21.3539C3.72724 22.4341 5.19231 23.0409 6.71996 23.0409H17.28C18.8076 23.0409 20.2727 22.4341 21.3529 21.3539C22.4331 20.2737 23.04 18.8086 23.04 17.2809V6.72094C23.04 5.19329 22.4331 3.72821 21.3529 2.648C20.2727 1.56779 18.8076 0.960938 17.28 0.960938V0.960938Z"
      fill="#192144"/>
    <path
      d="M12.0095 7.75642C12.8507 7.75642 13.6729 8.00584 14.3723 8.47314C15.0716 8.94045 15.6167 9.60464 15.9386 10.3817C16.2605 11.1588 16.3447 12.0139 16.1806 12.8389C16.0165 13.6639 15.6115 14.4216 15.0167 15.0164C14.422 15.6112 13.6642 16.0162 12.8392 16.1803C12.0143 16.3444 11.1592 16.2602 10.3821 15.9383C9.60496 15.6164 8.94076 15.0713 8.47346 14.3719C8.00616 13.6726 7.75673 12.8503 7.75673 12.0092C7.75547 11.4504 7.86461 10.8968 8.07788 10.3802C8.29115 9.8637 8.60437 9.39437 8.99953 8.99921C9.39469 8.60405 9.86402 8.29084 10.3806 8.07756C10.8971 7.86429 11.4507 7.75515 12.0095 7.75642ZM12.0095 6.31641C10.8832 6.31451 9.78161 6.64678 8.84417 7.27115C7.90673 7.89553 7.17558 8.78396 6.74323 9.82402C6.31088 10.8641 6.19678 12.009 6.41535 13.1139C6.63392 14.2189 7.17535 15.2341 7.97112 16.0312C8.76689 16.8283 9.78123 17.3715 10.8858 17.5919C11.9903 17.8124 13.1355 17.7002 14.1763 17.2696C15.217 16.839 16.1067 16.1093 16.7327 15.173C17.3586 14.2366 17.6927 13.1356 17.6927 12.0092C17.694 11.2621 17.5479 10.522 17.2629 9.8314C16.9778 9.14077 16.5594 8.51313 16.0316 7.98438C15.5037 7.45563 14.8768 7.03615 14.1866 6.74994C13.4965 6.46373 12.7567 6.31641 12.0095 6.31641Z"
      fill="#192144"/>
    <path
      d="M17.9041 7.41264C18.6145 7.41264 19.1905 6.8367 19.1905 6.12624C19.1905 5.41578 18.6145 4.83984 17.9041 4.83984C17.1936 4.83984 16.6177 5.41578 16.6177 6.12624C16.6177 6.8367 17.1936 7.41264 17.9041 7.41264Z"
      fill="#192144"/>
  </symbol>
  <symbol id="filter-close" viewBox="0 0 14 14" stroke="currentColor">
    <path d="M12.25 1.75L1.75 12.25" stroke-width="1.4" stroke-linecap="round" stroke-linejoin="round"/>
    <path d="M1.75 1.75L12.25 12.25" stroke-width="1.4" stroke-linecap="round" stroke-linejoin="round"/>
  </symbol>
  <symbol id="pagination-next" viewBox="0 0 10 18">
    <path d="M10 8.89478L0.25 17.555L0.25 0.234521L10 8.89478Z" fill="#1D2E5B"/>
  </symbol>
  <symbol id="range-control-minus" viewBox="0 0 14 2" stroke="currentColor">
    <line y1="1" x2="14" y2="1" stroke-width="2"/>
  </symbol>
  <symbol id="range-control-plus" viewBox="0 0 14 14" stroke="currentColor">
    <line y1="6.69995" x2="14" y2="6.69995" stroke-width="2"/>
    <line x1="6.7" y1="14" x2="6.7" stroke-width="2"/>
  </symbol>
  <symbol id="month-back" viewBox="0 0 16 29">
    <path d="M15.5494 0.596313C15.3796 0.422613 15.1778 0.284801 14.9557 0.190771C14.7336 0.0967409 14.4955 0.0483398 14.255 0.0483398C14.0145 0.0483398 13.7764 0.0967409 13.5543 0.190771C13.3322 0.284801 13.1304 0.422613 12.9606 0.596313L0.806391 12.9962C0.670803 13.1342 0.563232 13.2982 0.489837 13.4787C0.416441 13.6592 0.378662 13.8527 0.378662 14.0481C0.378662 14.2436 0.416441 14.4371 0.489837 14.6176C0.563232 14.7981 0.670803 14.9621 0.806391 15.1001L12.9606 27.5C13.6773 28.2311 14.8327 28.2311 15.5494 27.5C16.2661 26.7688 15.6724 26.0011 14.9557 25.2699L8.55413 18.7699L4.04435 14L15.5651 2C15.5651 2 16.2661 1.31255 15.5494 0.596313Z" fill="black"/>
  </symbol>
  <symbol id="arrow-select" viewBox="0 0 21 11" fill="currentColor">
    <path d="M0.41098 0.481235C0.280705 0.596555 0.177346 0.73355 0.106823 0.884374C0.0363008 1.0352 0 1.19689 0 1.36018C0 1.52347 0.0363008 1.68516 0.106823 1.83599C0.177346 1.98681 0.280705 2.12381 0.41098 2.23913L9.71087 10.4923C9.8144 10.5843 9.93738 10.6574 10.0728 10.7072C10.2082 10.7571 10.3533 10.7827 10.4999 10.7827C10.6464 10.7827 10.7916 10.7571 10.9269 10.7072C11.0623 10.6574 11.1853 10.5843 11.2888 10.4923L20.5887 2.23913C21.1371 1.75248 21.1371 0.967883 20.5887 0.481235C20.0404 -0.00541242 19.4645 0.397726 18.9162 0.884374L14.0412 5.23128L10.4637 8.29358L1.46374 0.470589C1.46374 0.470589 0.948157 -0.00541242 0.41098 0.481235Z"/>
  </symbol>
  <symbol id="arrow-down" viewBox="0 0 8 11" fill="currentColor">
    <path d="M3.64645 10.3536C3.84171 10.5488 4.15829 10.5488 4.35355 10.3536L7.53553 7.17157C7.7308 6.97631 7.7308 6.65973 7.53553 6.46447C7.34027 6.2692 7.02369 6.2692 6.82843 6.46447L4 9.29289L1.17157 6.46447C0.976311 6.2692 0.659728 6.2692 0.464466 6.46447C0.269204 6.65973 0.269204 6.97631 0.464466 7.17157L3.64645 10.3536ZM3.5 0L3.5 10H4.5L4.5 0L3.5 0Z"/>
  </symbol>
  <symbol id="firsova-rating-mobile" viewBox="0 0 46 45" fill="none">
    <path d="M23.5454 1.52201C28.9393 1.76918 34.0308 4.08455 37.7624 7.98727C41.494 11.89 43.5789 17.0801 43.5841 22.4797C43.5893 27.8793 41.5145 33.0735 37.7904 36.9834C34.0664 40.8933 28.9794 43.2185 23.5859 43.4761C18.1924 43.7337 12.907 41.9038 8.82729 38.3666C4.74759 34.8294 2.18716 29.8566 1.67778 24.4811C1.16839 19.1056 2.74919 13.7404 6.09186 9.49979C9.43454 5.25923 14.2822 2.46918 19.6281 1.7091" stroke="#FF8D30" stroke-width="3" stroke-linecap="round"/>
    <path d="M14.9884 28.312C16.0284 28.328 16.7404 28.008 17.1244 27.352C17.5244 26.68 17.7724 25.68 17.8684 24.352C17.0684 24.832 16.2044 25.072 15.2764 25.072C13.7244 25.072 12.4284 24.6 11.3884 23.656C10.3484 22.696 9.82837 21.344 9.82837 19.6C9.82837 17.952 10.3244 16.584 11.3164 15.496C12.3084 14.408 13.7244 13.864 15.5644 13.864C16.6364 13.864 17.5564 14.064 18.3244 14.464C19.0924 14.864 19.6844 15.448 20.1004 16.216C20.5324 16.984 20.8364 17.848 21.0124 18.808C21.2044 19.768 21.3004 20.872 21.3004 22.12C21.3004 25.08 20.7964 27.336 19.7884 28.888C18.7964 30.44 17.2924 31.216 15.2764 31.216C14.9404 31.216 14.5724 31.192 14.1724 31.144C13.7884 31.112 13.3324 31.04 12.8044 30.928C12.2924 30.8 11.8524 30.6 11.4844 30.328C11.1324 30.056 10.9324 29.728 10.8844 29.344C10.8364 28.96 10.9484 28.616 11.2204 28.312C11.5084 28.008 11.8924 27.856 12.3724 27.856C12.6124 27.856 13.0044 27.928 13.5484 28.072C14.1084 28.216 14.5884 28.296 14.9884 28.312ZM17.9404 21.256V20.968C17.9404 18.264 17.1084 16.912 15.4444 16.912C14.6444 16.912 14.0604 17.168 13.6924 17.68C13.3404 18.176 13.1644 18.808 13.1644 19.576C13.1644 21.24 13.9484 22.072 15.5164 22.072C16.5404 22.072 17.3484 21.8 17.9404 21.256ZM27.9493 28.312C28.9893 28.328 29.7013 28.008 30.0853 27.352C30.4853 26.68 30.7333 25.68 30.8293 24.352C30.0293 24.832 29.1653 25.072 28.2373 25.072C26.6853 25.072 25.3893 24.6 24.3493 23.656C23.3093 22.696 22.7893 21.344 22.7893 19.6C22.7893 17.952 23.2853 16.584 24.2773 15.496C25.2693 14.408 26.6853 13.864 28.5253 13.864C29.5973 13.864 30.5173 14.064 31.2853 14.464C32.0533 14.864 32.6453 15.448 33.0613 16.216C33.4933 16.984 33.7973 17.848 33.9733 18.808C34.1653 19.768 34.2613 20.872 34.2613 22.12C34.2613 25.08 33.7573 27.336 32.7493 28.888C31.7573 30.44 30.2533 31.216 28.2373 31.216C27.9013 31.216 27.5333 31.192 27.1333 31.144C26.7493 31.112 26.2933 31.04 25.7653 30.928C25.2533 30.8 24.8133 30.6 24.4453 30.328C24.0933 30.056 23.8933 29.728 23.8453 29.344C23.7973 28.96 23.9093 28.616 24.1813 28.312C24.4693 28.008 24.8533 27.856 25.3333 27.856C25.5733 27.856 25.9653 27.928 26.5093 28.072C27.0693 28.216 27.5493 28.296 27.9493 28.312ZM30.9013 21.256V20.968C30.9013 18.264 30.0693 16.912 28.4053 16.912C27.6053 16.912 27.0213 17.168 26.6533 17.68C26.3013 18.176 26.1253 18.808 26.1253 19.576C26.1253 21.24 26.9093 22.072 28.4773 22.072C29.5013 22.072 30.3093 21.8 30.9013 21.256Z" fill="#1D2E5B"/>
  </symbol>
  <symbol id="demin-rating-mobile" viewBox="0 0 46 45" fill="none">
    <path d="M23.5144 1.50818C27.9498 1.63199 32.232 3.15753 35.7466 5.86592C39.2613 8.57431 41.8277 12.3264 43.0778 16.5838C44.3278 20.8412 44.1972 25.3851 42.7047 29.5637C41.2122 33.7423 38.4345 37.3407 34.7702 39.8428C31.1058 42.3449 26.743 43.6219 22.3078 43.4908C17.8726 43.3597 13.593 41.8271 10.0828 39.113C6.57259 36.3988 4.01232 32.6425 2.76927 28.3831C1.52623 24.1236 1.6643 19.5799 3.16367 15.4038" stroke="#FF8D30" stroke-width="3" stroke-linecap="round"/>
    <path d="M22.9324 25.7971C22.9324 27.3011 22.3644 28.5411 21.2284 29.5171C20.1084 30.4931 18.6684 30.9811 16.9084 30.9811C15.1644 30.9811 13.7164 30.5011 12.5644 29.5411C11.4284 28.5811 10.8604 27.3651 10.8604 25.8931C10.8604 24.2131 11.6524 22.8611 13.2364 21.8371C12.0524 20.9411 11.4604 19.7731 11.4604 18.3331C11.4604 16.9091 11.9804 15.7731 13.0204 14.9251C14.0604 14.0771 15.3484 13.6531 16.8844 13.6531C18.4204 13.6531 19.7084 14.0851 20.7484 14.9491C21.7884 15.7971 22.3084 16.8931 22.3084 18.2371C22.3084 19.6131 21.7164 20.7571 20.5324 21.6691C22.1324 22.7251 22.9324 24.1011 22.9324 25.7971ZM19.0204 18.3091C19.0204 17.7971 18.8124 17.3731 18.3964 17.0371C17.9964 16.7011 17.5004 16.5331 16.9084 16.5331C16.3004 16.5331 15.7884 16.7011 15.3724 17.0371C14.9724 17.3731 14.7724 17.7971 14.7724 18.3091C14.7724 18.8371 14.9804 19.2851 15.3964 19.6531C15.8124 20.0051 16.3324 20.2451 16.9564 20.3731C17.5644 20.2291 18.0604 19.9731 18.4444 19.6051C18.8284 19.2371 19.0204 18.8051 19.0204 18.3091ZM19.5964 25.7971C19.5964 25.1571 19.3324 24.6291 18.8044 24.2131C18.2924 23.7811 17.6364 23.4771 16.8364 23.3011C16.0524 23.4611 15.4124 23.7651 14.9164 24.2131C14.4364 24.6451 14.1964 25.1731 14.1964 25.7971C14.1964 26.4371 14.4524 26.9731 14.9644 27.4051C15.4924 27.8371 16.1404 28.0531 16.9084 28.0531C17.6764 28.0531 18.3164 27.8371 18.8284 27.4051C19.3404 26.9571 19.5964 26.4211 19.5964 25.7971ZM32.0773 18.9571C32.0773 17.2131 31.3413 16.3411 29.8693 16.3411C28.3973 16.3411 27.6613 17.2131 27.6613 18.9571V25.7251C27.6613 26.4291 27.8533 26.9891 28.2373 27.4051C28.6213 27.8211 29.1653 28.0291 29.8693 28.0291C30.5733 28.0291 31.1173 27.8211 31.5013 27.4051C31.8853 26.9891 32.0773 26.4291 32.0773 25.7251V18.9571ZM25.7173 15.0211C26.6453 13.9491 28.0293 13.4131 29.8693 13.4131C31.7093 13.4131 33.0933 13.9491 34.0213 15.0211C34.9493 16.0771 35.4133 17.4451 35.4133 19.1251V25.7251C35.4133 27.2451 34.9173 28.5011 33.9253 29.4931C32.9493 30.4851 31.5973 30.9811 29.8693 30.9811C28.1413 30.9811 26.7813 30.4851 25.7893 29.4931C24.8133 28.5011 24.3253 27.2451 24.3253 25.7251V19.1251C24.3253 17.4451 24.7893 16.0771 25.7173 15.0211Z" fill="#1D2E5B"/>
  </symbol>
  <symbol id="smolov-rating-mobile" viewBox="0 0 46 45" fill="none">
    <path d="M22.5841 1.5C25.3419 1.5 28.0726 2.04318 30.6205 3.09853C33.1683 4.15388 35.4833 5.70073 37.4333 7.65076C39.3834 9.60079 40.9302 11.9158 41.9856 14.4636C43.0409 17.0115 43.5841 19.7422 43.5841 22.5" stroke="#FF8D30" stroke-width="3" stroke-linecap="round"/>
    <path d="M21.1804 29.488C21.1804 28.648 20.4604 28 19.5244 28H14.1724C15.4684 26.224 17.5804 24.736 19.1884 23.056C20.2924 21.904 21.0844 20.56 21.0844 18.52C21.0844 15.808 19.0444 13.648 15.5404 13.648C13.5964 13.648 10.1644 14.392 10.1644 16.144C10.1644 17.032 10.9804 17.608 11.7964 17.608C12.4924 17.608 12.9724 17.176 13.5004 16.96C14.0764 16.72 14.7004 16.576 15.5164 16.576C17.0044 16.576 17.7724 17.536 17.7724 18.76C17.7724 20.536 15.8524 21.904 14.5324 23.104C12.8284 24.64 11.0764 26.176 10.1164 28.288C9.94835 28.648 9.92435 29.08 9.92435 29.416C9.92435 30.304 10.6204 31 11.6284 31H19.5244C20.4604 31 21.1804 30.328 21.1804 29.488ZM33.9973 25.36C33.9973 21.976 31.6933 19.96 28.4053 19.96C27.8773 19.96 27.3253 20.008 26.8453 20.152L26.9893 17.032H31.4773C32.3413 17.032 33.3013 16.648 33.3013 15.568C33.3013 14.464 32.3413 14.056 31.4773 14.056H25.6933C24.8053 14.056 23.8933 14.656 23.8693 15.664L23.6293 22.288C23.6053 23.248 24.3493 23.92 25.3093 23.92C26.0773 23.92 27.0373 23.176 27.0373 23.176C27.4453 22.96 27.8293 22.864 28.3573 22.864C29.6533 22.864 30.6613 23.68 30.6613 25.456C30.6613 26.872 30.0133 28.288 27.8773 28.288C26.2693 28.288 25.5973 27.4 24.6613 27.4C23.7493 27.4 23.0533 28.096 23.0533 28.888C23.0533 30.88 27.3013 31.192 28.4293 31.192C32.3653 31.192 33.9973 28.144 33.9973 25.36Z" fill="#1D2E5B"/>
  </symbol>
  <symbol id="rogovaya-rating-mobile" viewBox="0 0 46 47" fill="none">
    <path d="M21.9283 1.60522C27.6304 1.60522 33.099 3.8704 37.131 7.90243C41.1631 11.9345 43.4283 17.4031 43.4283 23.1052C43.4283 28.8074 41.1631 34.276 37.1311 38.308C33.099 42.34 27.6304 44.6052 21.9283 44.6052" stroke="#FF8D30" stroke-width="3" stroke-linecap="round"/>
    <path d="M22.3805 26.9652C22.3805 28.5332 21.9085 29.9012 20.9645 31.0692C20.0205 32.2212 18.6365 32.7972 16.8125 32.7972C16.4285 32.7972 15.9805 32.7652 15.4685 32.7012C14.9565 32.6532 14.3725 32.5572 13.7165 32.4132C13.0765 32.2532 12.5325 32.0132 12.0845 31.6932C11.6525 31.3572 11.4365 30.9572 11.4365 30.4932C11.4365 30.0932 11.5885 29.7492 11.8925 29.4612C12.2125 29.1572 12.5965 29.0052 13.0445 29.0052C13.3005 29.0052 13.7485 29.1572 14.3885 29.4612C15.0445 29.7492 15.6685 29.8932 16.2605 29.8932C17.2525 29.8932 17.9645 29.6292 18.3965 29.1012C18.8285 28.5572 19.0445 27.8772 19.0445 27.0612C19.0445 26.2132 18.8285 25.5732 18.3965 25.1412C17.9805 24.6932 17.4285 24.4692 16.7405 24.4692C16.2605 24.4692 15.8205 24.5732 15.4205 24.7812C14.7805 25.2772 14.2045 25.5252 13.6925 25.5252C13.2125 25.5252 12.8045 25.3732 12.4685 25.0692C12.1485 24.7652 11.9965 24.3732 12.0125 23.8932L12.2525 17.2692C12.2685 16.7892 12.4525 16.4052 12.8045 16.1172C13.1725 15.8132 13.5965 15.6612 14.0765 15.6612H19.8605C20.3565 15.6612 20.7805 15.7892 21.1325 16.0452C21.5005 16.2852 21.6845 16.6612 21.6845 17.1732C21.6845 17.6692 21.5005 18.0372 21.1325 18.2772C20.7805 18.5172 20.3565 18.6372 19.8605 18.6372H15.3725L15.2285 21.7572C15.6605 21.6292 16.1805 21.5652 16.7885 21.5652C18.4525 21.5652 19.7965 22.0532 20.8205 23.0292C21.8605 23.9892 22.3805 25.3012 22.3805 26.9652ZM32.0774 20.7972C32.0774 19.0532 31.3414 18.1812 29.8694 18.1812C28.3974 18.1812 27.6614 19.0532 27.6614 20.7972V27.5652C27.6614 28.2692 27.8534 28.8292 28.2374 29.2452C28.6214 29.6612 29.1654 29.8692 29.8694 29.8692C30.5734 29.8692 31.1174 29.6612 31.5014 29.2452C31.8854 28.8292 32.0774 28.2692 32.0774 27.5652V20.7972ZM25.7174 16.8612C26.6454 15.7892 28.0294 15.2532 29.8694 15.2532C31.7094 15.2532 33.0934 15.7892 34.0214 16.8612C34.9494 17.9172 35.4134 19.2852 35.4134 20.9652V27.5652C35.4134 29.0852 34.9174 30.3412 33.9254 31.3332C32.9494 32.3252 31.5974 32.8212 29.8694 32.8212C28.1414 32.8212 26.7814 32.3252 25.7894 31.3332C24.8134 30.3412 24.3254 29.0852 24.3254 27.5652V20.9652C24.3254 19.2852 24.7894 17.9172 25.7174 16.8612Z" fill="#1D2E5B"/>
  </symbol>
  <symbol id="firsova-rating-tablet" viewBox="0 0 64 64" fill="none">
    <path d="M27.436 2.3492C19.7903 3.52607 12.8947 7.61087 8.18897 13.7508C3.48324 19.8906 1.33115 27.611 2.18203 35.2998C3.03291 42.9886 6.82098 50.0516 12.7553 55.014C18.6897 59.9764 26.3116 62.4546 34.0296 61.9313C41.7477 61.4079 48.9652 57.9234 54.1753 52.2053C59.3854 46.4872 62.1854 38.9775 61.9905 31.2442C61.7956 23.5109 58.621 16.1518 53.1295 10.7034C47.6379 5.25497 40.254 2.13844 32.5194 2.0045" stroke="#FF8D30" stroke-width="3" stroke-linecap="round"/>
    <path d="M25.9042 31.312C26.9442 31.328 27.6562 31.008 28.0402 30.352C28.4402 29.68 28.6882 28.68 28.7842 27.352C27.9842 27.832 27.1202 28.072 26.1922 28.072C24.6402 28.072 23.3442 27.6 22.3042 26.656C21.2642 25.696 20.7442 24.344 20.7442 22.6C20.7442 20.952 21.2402 19.584 22.2322 18.496C23.2242 17.408 24.6402 16.864 26.4802 16.864C27.5522 16.864 28.4722 17.064 29.2402 17.464C30.0082 17.864 30.6002 18.448 31.0162 19.216C31.4482 19.984 31.7522 20.848 31.9282 21.808C32.1202 22.768 32.2162 23.872 32.2162 25.12C32.2162 28.08 31.7122 30.336 30.7042 31.888C29.7122 33.44 28.2082 34.216 26.1922 34.216C25.8562 34.216 25.4882 34.192 25.0882 34.144C24.7042 34.112 24.2482 34.04 23.7202 33.928C23.2082 33.8 22.7682 33.6 22.4002 33.328C22.0482 33.056 21.8482 32.728 21.8002 32.344C21.7522 31.96 21.8642 31.616 22.1362 31.312C22.4242 31.008 22.8082 30.856 23.2882 30.856C23.5282 30.856 23.9202 30.928 24.4642 31.072C25.0242 31.216 25.5042 31.296 25.9042 31.312ZM28.8562 24.256V23.968C28.8562 21.264 28.0242 19.912 26.3602 19.912C25.5602 19.912 24.9762 20.168 24.6082 20.68C24.2562 21.176 24.0802 21.808 24.0802 22.576C24.0802 24.24 24.8642 25.072 26.4322 25.072C27.4562 25.072 28.2642 24.8 28.8562 24.256ZM38.8652 31.312C39.9052 31.328 40.6172 31.008 41.0012 30.352C41.4012 29.68 41.6492 28.68 41.7452 27.352C40.9452 27.832 40.0812 28.072 39.1532 28.072C37.6012 28.072 36.3052 27.6 35.2652 26.656C34.2252 25.696 33.7052 24.344 33.7052 22.6C33.7052 20.952 34.2012 19.584 35.1932 18.496C36.1852 17.408 37.6012 16.864 39.4412 16.864C40.5132 16.864 41.4332 17.064 42.2012 17.464C42.9692 17.864 43.5612 18.448 43.9772 19.216C44.4092 19.984 44.7132 20.848 44.8892 21.808C45.0812 22.768 45.1772 23.872 45.1772 25.12C45.1772 28.08 44.6732 30.336 43.6652 31.888C42.6732 33.44 41.1692 34.216 39.1532 34.216C38.8172 34.216 38.4492 34.192 38.0492 34.144C37.6652 34.112 37.2092 34.04 36.6812 33.928C36.1692 33.8 35.7292 33.6 35.3612 33.328C35.0092 33.056 34.8092 32.728 34.7612 32.344C34.7132 31.96 34.8252 31.616 35.0972 31.312C35.3852 31.008 35.7692 30.856 36.2492 30.856C36.4892 30.856 36.8812 30.928 37.4252 31.072C37.9852 31.216 38.4652 31.296 38.8652 31.312ZM41.8172 24.256V23.968C41.8172 21.264 40.9852 19.912 39.3212 19.912C38.5212 19.912 37.9372 20.168 37.5692 20.68C37.2172 21.176 37.0412 21.808 37.0412 22.576C37.0412 24.24 37.8252 25.072 39.3932 25.072C40.4172 25.072 41.2252 24.8 41.8172 24.256Z" fill="#1D2E5B"/>
    <line opacity="0.1" x1="17" y1="38.5" x2="48" y2="38.5" stroke="black"/>
    <path opacity="0.4" d="M21.0362 50.684V42.396C21.0362 42.2467 21.0876 42.1207 21.1902 42.018C21.3022 41.906 21.4329 41.85 21.5822 41.85C21.7409 41.85 21.8716 41.906 21.9742 42.018C22.0769 42.1207 22.1282 42.2467 22.1282 42.396V50.684C22.1282 50.992 22.1936 51.2113 22.3242 51.342C22.3896 51.426 22.4222 51.5147 22.4222 51.608C22.4222 51.748 22.3709 51.8693 22.2682 51.972C22.1749 52.0653 22.0582 52.112 21.9182 52.112C21.3302 52.112 21.0362 51.636 21.0362 50.684ZM26.4338 51.146C26.8351 51.146 27.3205 51.0153 27.8898 50.754C27.9458 50.726 28.0111 50.712 28.0858 50.712C28.2258 50.712 28.3425 50.7633 28.4358 50.866C28.5291 50.9593 28.5758 51.0713 28.5758 51.202C28.5758 51.51 28.3238 51.7387 27.8198 51.888C27.3158 52.0373 26.8118 52.112 26.3078 52.112C25.5331 52.112 24.9218 51.8973 24.4738 51.468C24.0351 51.0293 23.8158 50.4693 23.8158 49.788V47.17C23.8158 46.47 24.0398 45.9007 24.4878 45.462C24.9358 45.0233 25.5658 44.804 26.3778 44.804C27.1338 44.804 27.7078 45.0093 28.0998 45.42C28.5011 45.8213 28.7018 46.3767 28.7018 47.086C28.7018 48.4673 27.9131 49.158 26.3358 49.158C25.8785 49.158 25.4025 49.116 24.9078 49.032V49.858C24.9078 50.2593 25.0385 50.5767 25.2998 50.81C25.5611 51.034 25.9391 51.146 26.4338 51.146ZM27.6238 47.086C27.6238 46.2273 27.1991 45.798 26.3498 45.798C25.9018 45.798 25.5471 45.9147 25.2858 46.148C25.0338 46.372 24.9078 46.68 24.9078 47.072V48.136C25.3931 48.2013 25.8831 48.234 26.3778 48.234C26.8631 48.234 27.1898 48.1313 27.3578 47.926C27.5351 47.7113 27.6238 47.4313 27.6238 47.086ZM34.9258 45.532L33.0218 51.454C32.8724 51.8927 32.6344 52.112 32.3078 52.112C32.1211 52.112 31.9718 52.0653 31.8598 51.972C31.7571 51.8693 31.6684 51.7013 31.5938 51.468L29.6478 45.49C29.5918 45.3313 29.6244 45.1867 29.7458 45.056C29.8671 44.916 30.0118 44.846 30.1798 44.846C30.4224 44.846 30.5858 44.9673 30.6698 45.21L32.3078 50.488L33.9178 45.21C34.0018 44.9673 34.1651 44.846 34.4078 44.846C34.5758 44.846 34.7158 44.916 34.8278 45.056C34.9398 45.196 34.9724 45.3547 34.9258 45.532ZM38.4787 51.146C38.88 51.146 39.3654 51.0153 39.9347 50.754C39.9907 50.726 40.056 50.712 40.1307 50.712C40.2707 50.712 40.3874 50.7633 40.4807 50.866C40.574 50.9593 40.6207 51.0713 40.6207 51.202C40.6207 51.51 40.3687 51.7387 39.8647 51.888C39.3607 52.0373 38.8567 52.112 38.3527 52.112C37.578 52.112 36.9667 51.8973 36.5187 51.468C36.08 51.0293 35.8607 50.4693 35.8607 49.788V47.17C35.8607 46.47 36.0847 45.9007 36.5327 45.462C36.9807 45.0233 37.6107 44.804 38.4227 44.804C39.1787 44.804 39.7527 45.0093 40.1447 45.42C40.546 45.8213 40.7467 46.3767 40.7467 47.086C40.7467 48.4673 39.958 49.158 38.3807 49.158C37.9234 49.158 37.4474 49.116 36.9527 49.032V49.858C36.9527 50.2593 37.0834 50.5767 37.3447 50.81C37.606 51.034 37.984 51.146 38.4787 51.146ZM39.6687 47.086C39.6687 46.2273 39.244 45.798 38.3947 45.798C37.9467 45.798 37.592 45.9147 37.3307 46.148C37.0787 46.372 36.9527 46.68 36.9527 47.072V48.136C37.438 48.2013 37.928 48.234 38.4227 48.234C38.908 48.234 39.2347 48.1313 39.4027 47.926C39.58 47.7113 39.6687 47.4313 39.6687 47.086ZM42.1593 50.684V42.396C42.1593 42.2467 42.2106 42.1207 42.3133 42.018C42.4253 41.906 42.556 41.85 42.7053 41.85C42.864 41.85 42.9946 41.906 43.0973 42.018C43.2 42.1207 43.2513 42.2467 43.2513 42.396V50.684C43.2513 50.992 43.3166 51.2113 43.4473 51.342C43.5126 51.426 43.5453 51.5147 43.5453 51.608C43.5453 51.748 43.494 51.8693 43.3913 51.972C43.298 52.0653 43.1813 52.112 43.0413 52.112C42.4533 52.112 42.1593 51.636 42.1593 50.684Z" fill="black"/>
  </symbol>
  <symbol id="demin-rating-tablet" viewBox="0 0 64 64" fill="none">
    <path d="M4.93242 19.0638C2.18934 24.8033 1.34174 31.2663 2.51205 37.5191C3.68236 43.7719 6.80999 49.4909 11.4432 53.8499C16.0764 58.2089 21.9752 60.9823 28.2877 61.7694C34.6002 62.5566 40.9995 61.3168 46.5613 58.2291C52.1231 55.1415 56.5594 50.3658 59.2295 44.5919C61.8995 38.8179 62.6651 32.3447 61.4156 26.1073C60.166 19.8698 56.9661 14.191 52.278 9.89114C47.5899 5.59126 41.6563 2.89292 35.3344 2.18588" stroke="#FF8D30" stroke-width="3" stroke-linecap="round"/>
    <path d="M32.5042 29.032C32.5042 30.536 31.9362 31.776 30.8002 32.752C29.6802 33.728 28.2402 34.216 26.4802 34.216C24.7362 34.216 23.2882 33.736 22.1362 32.776C21.0002 31.816 20.4322 30.6 20.4322 29.128C20.4322 27.448 21.2242 26.096 22.8082 25.072C21.6242 24.176 21.0322 23.008 21.0322 21.568C21.0322 20.144 21.5522 19.008 22.5922 18.16C23.6322 17.312 24.9202 16.888 26.4562 16.888C27.9922 16.888 29.2802 17.32 30.3202 18.184C31.3602 19.032 31.8802 20.128 31.8802 21.472C31.8802 22.848 31.2882 23.992 30.1042 24.904C31.7042 25.96 32.5042 27.336 32.5042 29.032ZM28.5922 21.544C28.5922 21.032 28.3842 20.608 27.9682 20.272C27.5682 19.936 27.0722 19.768 26.4802 19.768C25.8722 19.768 25.3602 19.936 24.9442 20.272C24.5442 20.608 24.3442 21.032 24.3442 21.544C24.3442 22.072 24.5522 22.52 24.9682 22.888C25.3842 23.24 25.9042 23.48 26.5282 23.608C27.1362 23.464 27.6322 23.208 28.0162 22.84C28.4002 22.472 28.5922 22.04 28.5922 21.544ZM29.1682 29.032C29.1682 28.392 28.9042 27.864 28.3762 27.448C27.8642 27.016 27.2082 26.712 26.4082 26.536C25.6242 26.696 24.9842 27 24.4882 27.448C24.0082 27.88 23.7682 28.408 23.7682 29.032C23.7682 29.672 24.0242 30.208 24.5362 30.64C25.0642 31.072 25.7122 31.288 26.4802 31.288C27.2482 31.288 27.8882 31.072 28.4002 30.64C28.9122 30.192 29.1682 29.656 29.1682 29.032ZM41.6492 22.192C41.6492 20.448 40.9132 19.576 39.4412 19.576C37.9692 19.576 37.2332 20.448 37.2332 22.192V28.96C37.2332 29.664 37.4252 30.224 37.8092 30.64C38.1932 31.056 38.7372 31.264 39.4412 31.264C40.1452 31.264 40.6892 31.056 41.0732 30.64C41.4572 30.224 41.6492 29.664 41.6492 28.96V22.192ZM35.2892 18.256C36.2172 17.184 37.6012 16.648 39.4412 16.648C41.2812 16.648 42.6652 17.184 43.5932 18.256C44.5212 19.312 44.9852 20.68 44.9852 22.36V28.96C44.9852 30.48 44.4892 31.736 43.4972 32.728C42.5212 33.72 41.1692 34.216 39.4412 34.216C37.7132 34.216 36.3532 33.72 35.3612 32.728C34.3852 31.736 33.8972 30.48 33.8972 28.96V22.36C33.8972 20.68 34.3612 19.312 35.2892 18.256Z" fill="currentColor"/>
    <line opacity="0.1" x1="17" y1="38.5" x2="48" y2="38.5" stroke="currentColor"/>
    <path opacity="0.4" d="M21.0362 50.684V42.396C21.0362 42.2467 21.0876 42.1207 21.1902 42.018C21.3022 41.906 21.4329 41.85 21.5822 41.85C21.7409 41.85 21.8716 41.906 21.9742 42.018C22.0769 42.1207 22.1282 42.2467 22.1282 42.396V50.684C22.1282 50.992 22.1936 51.2113 22.3242 51.342C22.3896 51.426 22.4222 51.5147 22.4222 51.608C22.4222 51.748 22.3709 51.8693 22.2682 51.972C22.1749 52.0653 22.0582 52.112 21.9182 52.112C21.3302 52.112 21.0362 51.636 21.0362 50.684ZM26.4338 51.146C26.8351 51.146 27.3205 51.0153 27.8898 50.754C27.9458 50.726 28.0111 50.712 28.0858 50.712C28.2258 50.712 28.3425 50.7633 28.4358 50.866C28.5291 50.9593 28.5758 51.0713 28.5758 51.202C28.5758 51.51 28.3238 51.7387 27.8198 51.888C27.3158 52.0373 26.8118 52.112 26.3078 52.112C25.5331 52.112 24.9218 51.8973 24.4738 51.468C24.0351 51.0293 23.8158 50.4693 23.8158 49.788V47.17C23.8158 46.47 24.0398 45.9007 24.4878 45.462C24.9358 45.0233 25.5658 44.804 26.3778 44.804C27.1338 44.804 27.7078 45.0093 28.0998 45.42C28.5011 45.8213 28.7018 46.3767 28.7018 47.086C28.7018 48.4673 27.9131 49.158 26.3358 49.158C25.8785 49.158 25.4025 49.116 24.9078 49.032V49.858C24.9078 50.2593 25.0385 50.5767 25.2998 50.81C25.5611 51.034 25.9391 51.146 26.4338 51.146ZM27.6238 47.086C27.6238 46.2273 27.1991 45.798 26.3498 45.798C25.9018 45.798 25.5471 45.9147 25.2858 46.148C25.0338 46.372 24.9078 46.68 24.9078 47.072V48.136C25.3931 48.2013 25.8831 48.234 26.3778 48.234C26.8631 48.234 27.1898 48.1313 27.3578 47.926C27.5351 47.7113 27.6238 47.4313 27.6238 47.086ZM34.9258 45.532L33.0218 51.454C32.8724 51.8927 32.6344 52.112 32.3078 52.112C32.1211 52.112 31.9718 52.0653 31.8598 51.972C31.7571 51.8693 31.6684 51.7013 31.5938 51.468L29.6478 45.49C29.5918 45.3313 29.6244 45.1867 29.7458 45.056C29.8671 44.916 30.0118 44.846 30.1798 44.846C30.4224 44.846 30.5858 44.9673 30.6698 45.21L32.3078 50.488L33.9178 45.21C34.0018 44.9673 34.1651 44.846 34.4078 44.846C34.5758 44.846 34.7158 44.916 34.8278 45.056C34.9398 45.196 34.9724 45.3547 34.9258 45.532ZM38.4787 51.146C38.88 51.146 39.3654 51.0153 39.9347 50.754C39.9907 50.726 40.056 50.712 40.1307 50.712C40.2707 50.712 40.3874 50.7633 40.4807 50.866C40.574 50.9593 40.6207 51.0713 40.6207 51.202C40.6207 51.51 40.3687 51.7387 39.8647 51.888C39.3607 52.0373 38.8567 52.112 38.3527 52.112C37.578 52.112 36.9667 51.8973 36.5187 51.468C36.08 51.0293 35.8607 50.4693 35.8607 49.788V47.17C35.8607 46.47 36.0847 45.9007 36.5327 45.462C36.9807 45.0233 37.6107 44.804 38.4227 44.804C39.1787 44.804 39.7527 45.0093 40.1447 45.42C40.546 45.8213 40.7467 46.3767 40.7467 47.086C40.7467 48.4673 39.958 49.158 38.3807 49.158C37.9234 49.158 37.4474 49.116 36.9527 49.032V49.858C36.9527 50.2593 37.0834 50.5767 37.3447 50.81C37.606 51.034 37.984 51.146 38.4787 51.146ZM39.6687 47.086C39.6687 46.2273 39.244 45.798 38.3947 45.798C37.9467 45.798 37.592 45.9147 37.3307 46.148C37.0787 46.372 36.9527 46.68 36.9527 47.072V48.136C37.438 48.2013 37.928 48.234 38.4227 48.234C38.908 48.234 39.2347 48.1313 39.4027 47.926C39.58 47.7113 39.6687 47.4313 39.6687 47.086ZM42.1593 50.684V42.396C42.1593 42.2467 42.2106 42.1207 42.3133 42.018C42.4253 41.906 42.556 41.85 42.7053 41.85C42.864 41.85 42.9946 41.906 43.0973 42.018C43.2 42.1207 43.2513 42.2467 43.2513 42.396V50.684C43.2513 50.992 43.3166 51.2113 43.4473 51.342C43.5126 51.426 43.5453 51.5147 43.5453 51.608C43.5453 51.748 43.494 51.8693 43.3913 51.972C43.298 52.0653 43.1813 52.112 43.0413 52.112C42.4533 52.112 42.1593 51.636 42.1593 50.684Z" fill="currentColor"/>
  </symbol>
  <symbol id="smolov-rating-tablet" viewBox="0 0 62 62" fill="none">
    <path d="M59.8014 35.4465C60.254 31.5329 59.9313 27.5685 58.8518 23.7796C57.7723 19.9908 55.9571 16.4516 53.5098 13.3643C51.0625 10.2769 48.0311 7.70183 44.5886 5.78602C41.1461 3.87022 37.36 2.65122 33.4465 2.19863" stroke="#FF8D30" stroke-width="3" stroke-linecap="round"/>
    <path d="M29.6162 31.432C29.9362 31.72 30.0962 32.072 30.0962 32.488C30.0962 32.904 29.9362 33.264 29.6162 33.568C29.2962 33.856 28.9042 34 28.4402 34H20.5442C20.0482 34 19.6402 33.848 19.3202 33.544C19.0002 33.24 18.8402 32.864 18.8402 32.416C18.8402 31.936 18.9042 31.56 19.0322 31.288C19.3362 30.632 19.7602 29.968 20.3042 29.296C20.8482 28.608 21.3042 28.088 21.6722 27.736C22.0562 27.368 22.6482 26.824 23.4482 26.104C23.5282 26.04 23.8002 25.808 24.2642 25.408C24.7282 24.992 25.0402 24.704 25.2002 24.544C25.3602 24.368 25.5922 24.104 25.8962 23.752C26.2002 23.4 26.4082 23.064 26.5202 22.744C26.6322 22.424 26.6882 22.096 26.6882 21.76C26.6882 21.12 26.4882 20.6 26.0882 20.2C25.7042 19.784 25.1522 19.576 24.4322 19.576C23.6962 19.576 23.0242 19.704 22.4162 19.96C22.3042 20.008 22.1362 20.096 21.9122 20.224C21.7042 20.336 21.5042 20.432 21.3122 20.512C21.1202 20.576 20.9202 20.608 20.7122 20.608C20.2802 20.608 19.8962 20.472 19.5602 20.2C19.2402 19.928 19.0802 19.576 19.0802 19.144C19.0802 18.36 19.6722 17.752 20.8562 17.32C22.0562 16.872 23.2562 16.648 24.4562 16.648C26.1522 16.648 27.4962 17.112 28.4882 18.04C29.4962 18.952 30.0002 20.112 30.0002 21.52C30.0002 23.232 29.3682 24.744 28.1042 26.056C27.7842 26.392 26.9922 27.128 25.7282 28.264C24.4642 29.4 23.5842 30.312 23.0882 31H28.4402C28.9042 31 29.2962 31.144 29.6162 31.432ZM42.9132 28.36C42.9132 29.928 42.4412 31.296 41.4972 32.464C40.5532 33.616 39.1692 34.192 37.3452 34.192C36.9612 34.192 36.5132 34.16 36.0012 34.096C35.4892 34.048 34.9052 33.952 34.2492 33.808C33.6092 33.648 33.0652 33.408 32.6172 33.088C32.1852 32.752 31.9692 32.352 31.9692 31.888C31.9692 31.488 32.1212 31.144 32.4252 30.856C32.7452 30.552 33.1292 30.4 33.5772 30.4C33.8332 30.4 34.2812 30.552 34.9212 30.856C35.5772 31.144 36.2012 31.288 36.7932 31.288C37.7852 31.288 38.4972 31.024 38.9292 30.496C39.3612 29.952 39.5772 29.272 39.5772 28.456C39.5772 27.608 39.3612 26.968 38.9292 26.536C38.5132 26.088 37.9612 25.864 37.2732 25.864C36.7932 25.864 36.3532 25.968 35.9532 26.176C35.3132 26.672 34.7372 26.92 34.2252 26.92C33.7452 26.92 33.3372 26.768 33.0012 26.464C32.6812 26.16 32.5292 25.768 32.5452 25.288L32.7852 18.664C32.8012 18.184 32.9852 17.8 33.3372 17.512C33.7052 17.208 34.1292 17.056 34.6092 17.056H40.3932C40.8892 17.056 41.3132 17.184 41.6652 17.44C42.0332 17.68 42.2172 18.056 42.2172 18.568C42.2172 19.064 42.0332 19.432 41.6652 19.672C41.3132 19.912 40.8892 20.032 40.3932 20.032H35.9052L35.7612 23.152C36.1932 23.024 36.7132 22.96 37.3212 22.96C38.9852 22.96 40.3292 23.448 41.3532 24.424C42.3932 25.384 42.9132 26.696 42.9132 28.36Z" fill="#1D2E5B"/>
    <line opacity="0.1" x1="15" y1="38.5" x2="46" y2="38.5" stroke="black"/>
    <path opacity="0.4" d="M19.0362 50.684V42.396C19.0362 42.2467 19.0876 42.1207 19.1902 42.018C19.3022 41.906 19.4329 41.85 19.5822 41.85C19.7409 41.85 19.8716 41.906 19.9742 42.018C20.0769 42.1207 20.1282 42.2467 20.1282 42.396V50.684C20.1282 50.992 20.1936 51.2113 20.3242 51.342C20.3896 51.426 20.4222 51.5147 20.4222 51.608C20.4222 51.748 20.3709 51.8693 20.2682 51.972C20.1749 52.0653 20.0582 52.112 19.9182 52.112C19.3302 52.112 19.0362 51.636 19.0362 50.684ZM24.4338 51.146C24.8351 51.146 25.3205 51.0153 25.8898 50.754C25.9458 50.726 26.0111 50.712 26.0858 50.712C26.2258 50.712 26.3425 50.7633 26.4358 50.866C26.5291 50.9593 26.5758 51.0713 26.5758 51.202C26.5758 51.51 26.3238 51.7387 25.8198 51.888C25.3158 52.0373 24.8118 52.112 24.3078 52.112C23.5331 52.112 22.9218 51.8973 22.4738 51.468C22.0351 51.0293 21.8158 50.4693 21.8158 49.788V47.17C21.8158 46.47 22.0398 45.9007 22.4878 45.462C22.9358 45.0233 23.5658 44.804 24.3778 44.804C25.1338 44.804 25.7078 45.0093 26.0998 45.42C26.5011 45.8213 26.7018 46.3767 26.7018 47.086C26.7018 48.4673 25.9131 49.158 24.3358 49.158C23.8785 49.158 23.4025 49.116 22.9078 49.032V49.858C22.9078 50.2593 23.0385 50.5767 23.2998 50.81C23.5611 51.034 23.9391 51.146 24.4338 51.146ZM25.6238 47.086C25.6238 46.2273 25.1991 45.798 24.3498 45.798C23.9018 45.798 23.5471 45.9147 23.2858 46.148C23.0338 46.372 22.9078 46.68 22.9078 47.072V48.136C23.3931 48.2013 23.8831 48.234 24.3778 48.234C24.8631 48.234 25.1898 48.1313 25.3578 47.926C25.5351 47.7113 25.6238 47.4313 25.6238 47.086ZM32.9258 45.532L31.0218 51.454C30.8724 51.8927 30.6344 52.112 30.3078 52.112C30.1211 52.112 29.9718 52.0653 29.8598 51.972C29.7571 51.8693 29.6684 51.7013 29.5938 51.468L27.6478 45.49C27.5918 45.3313 27.6244 45.1867 27.7458 45.056C27.8671 44.916 28.0118 44.846 28.1798 44.846C28.4224 44.846 28.5858 44.9673 28.6698 45.21L30.3078 50.488L31.9178 45.21C32.0018 44.9673 32.1651 44.846 32.4078 44.846C32.5758 44.846 32.7158 44.916 32.8278 45.056C32.9398 45.196 32.9724 45.3547 32.9258 45.532ZM36.4787 51.146C36.88 51.146 37.3654 51.0153 37.9347 50.754C37.9907 50.726 38.056 50.712 38.1307 50.712C38.2707 50.712 38.3874 50.7633 38.4807 50.866C38.574 50.9593 38.6207 51.0713 38.6207 51.202C38.6207 51.51 38.3687 51.7387 37.8647 51.888C37.3607 52.0373 36.8567 52.112 36.3527 52.112C35.578 52.112 34.9667 51.8973 34.5187 51.468C34.08 51.0293 33.8607 50.4693 33.8607 49.788V47.17C33.8607 46.47 34.0847 45.9007 34.5327 45.462C34.9807 45.0233 35.6107 44.804 36.4227 44.804C37.1787 44.804 37.7527 45.0093 38.1447 45.42C38.546 45.8213 38.7467 46.3767 38.7467 47.086C38.7467 48.4673 37.958 49.158 36.3807 49.158C35.9234 49.158 35.4474 49.116 34.9527 49.032V49.858C34.9527 50.2593 35.0834 50.5767 35.3447 50.81C35.606 51.034 35.984 51.146 36.4787 51.146ZM37.6687 47.086C37.6687 46.2273 37.244 45.798 36.3947 45.798C35.9467 45.798 35.592 45.9147 35.3307 46.148C35.0787 46.372 34.9527 46.68 34.9527 47.072V48.136C35.438 48.2013 35.928 48.234 36.4227 48.234C36.908 48.234 37.2347 48.1313 37.4027 47.926C37.58 47.7113 37.6687 47.4313 37.6687 47.086ZM40.1593 50.684V42.396C40.1593 42.2467 40.2106 42.1207 40.3133 42.018C40.4253 41.906 40.556 41.85 40.7053 41.85C40.864 41.85 40.9946 41.906 41.0973 42.018C41.2 42.1207 41.2513 42.2467 41.2513 42.396V50.684C41.2513 50.992 41.3166 51.2113 41.4473 51.342C41.5126 51.426 41.5453 51.5147 41.5453 51.608C41.5453 51.748 41.494 51.8693 41.3913 51.972C41.298 52.0653 41.1813 52.112 41.0413 52.112C40.4533 52.112 40.1593 51.636 40.1593 50.684Z" fill="black"/>
  </symbol>
  <symbol id="rogovaya-rating-tablet" viewBox="0 0 62 64" fill="none">
    <path d="M30 62C37.9565 62 45.5871 58.8393 51.2132 53.2132C56.8393 47.5871 60 39.9565 60 32C60 24.0435 56.8393 16.4129 51.2132 10.7868C45.5871 5.16071 37.9565 2 30 2" stroke="#FF8D30" stroke-width="3" stroke-linecap="round"/>
    <path d="M29.9522 28.36C29.9522 29.928 29.4802 31.296 28.5362 32.464C27.5922 33.616 26.2082 34.192 24.3842 34.192C24.0002 34.192 23.5522 34.16 23.0402 34.096C22.5282 34.048 21.9442 33.952 21.2882 33.808C20.6482 33.648 20.1042 33.408 19.6562 33.088C19.2242 32.752 19.0082 32.352 19.0082 31.888C19.0082 31.488 19.1602 31.144 19.4642 30.856C19.7842 30.552 20.1682 30.4 20.6162 30.4C20.8722 30.4 21.3202 30.552 21.9602 30.856C22.6162 31.144 23.2402 31.288 23.8322 31.288C24.8242 31.288 25.5362 31.024 25.9682 30.496C26.4002 29.952 26.6162 29.272 26.6162 28.456C26.6162 27.608 26.4002 26.968 25.9682 26.536C25.5522 26.088 25.0002 25.864 24.3122 25.864C23.8322 25.864 23.3922 25.968 22.9922 26.176C22.3522 26.672 21.7762 26.92 21.2642 26.92C20.7842 26.92 20.3762 26.768 20.0402 26.464C19.7202 26.16 19.5682 25.768 19.5842 25.288L19.8242 18.664C19.8402 18.184 20.0242 17.8 20.3762 17.512C20.7442 17.208 21.1682 17.056 21.6482 17.056H27.4322C27.9282 17.056 28.3522 17.184 28.7042 17.44C29.0722 17.68 29.2562 18.056 29.2562 18.568C29.2562 19.064 29.0722 19.432 28.7042 19.672C28.3522 19.912 27.9282 20.032 27.4322 20.032H22.9442L22.8002 23.152C23.2322 23.024 23.7522 22.96 24.3602 22.96C26.0242 22.96 27.3682 23.448 28.3922 24.424C29.4322 25.384 29.9522 26.696 29.9522 28.36ZM39.6492 22.192C39.6492 20.448 38.9132 19.576 37.4412 19.576C35.9692 19.576 35.2332 20.448 35.2332 22.192V28.96C35.2332 29.664 35.4252 30.224 35.8092 30.64C36.1932 31.056 36.7372 31.264 37.4412 31.264C38.1452 31.264 38.6892 31.056 39.0732 30.64C39.4572 30.224 39.6492 29.664 39.6492 28.96V22.192ZM33.2892 18.256C34.2172 17.184 35.6012 16.648 37.4412 16.648C39.2812 16.648 40.6652 17.184 41.5932 18.256C42.5212 19.312 42.9852 20.68 42.9852 22.36V28.96C42.9852 30.48 42.4892 31.736 41.4972 32.728C40.5212 33.72 39.1692 34.216 37.4412 34.216C35.7132 34.216 34.3532 33.72 33.3612 32.728C32.3852 31.736 31.8972 30.48 31.8972 28.96V22.36C31.8972 20.68 32.3612 19.312 33.2892 18.256Z" fill="#1D2E5B"/>
    <line opacity="0.1" x1="15" y1="38.5" x2="46" y2="38.5" stroke="black"/>
    <path opacity="0.4" d="M19.0362 50.684V42.396C19.0362 42.2467 19.0876 42.1207 19.1902 42.018C19.3022 41.906 19.4329 41.85 19.5822 41.85C19.7409 41.85 19.8716 41.906 19.9742 42.018C20.0769 42.1207 20.1282 42.2467 20.1282 42.396V50.684C20.1282 50.992 20.1936 51.2113 20.3242 51.342C20.3896 51.426 20.4222 51.5147 20.4222 51.608C20.4222 51.748 20.3709 51.8693 20.2682 51.972C20.1749 52.0653 20.0582 52.112 19.9182 52.112C19.3302 52.112 19.0362 51.636 19.0362 50.684ZM24.4338 51.146C24.8351 51.146 25.3205 51.0153 25.8898 50.754C25.9458 50.726 26.0111 50.712 26.0858 50.712C26.2258 50.712 26.3425 50.7633 26.4358 50.866C26.5291 50.9593 26.5758 51.0713 26.5758 51.202C26.5758 51.51 26.3238 51.7387 25.8198 51.888C25.3158 52.0373 24.8118 52.112 24.3078 52.112C23.5331 52.112 22.9218 51.8973 22.4738 51.468C22.0351 51.0293 21.8158 50.4693 21.8158 49.788V47.17C21.8158 46.47 22.0398 45.9007 22.4878 45.462C22.9358 45.0233 23.5658 44.804 24.3778 44.804C25.1338 44.804 25.7078 45.0093 26.0998 45.42C26.5011 45.8213 26.7018 46.3767 26.7018 47.086C26.7018 48.4673 25.9131 49.158 24.3358 49.158C23.8785 49.158 23.4025 49.116 22.9078 49.032V49.858C22.9078 50.2593 23.0385 50.5767 23.2998 50.81C23.5611 51.034 23.9391 51.146 24.4338 51.146ZM25.6238 47.086C25.6238 46.2273 25.1991 45.798 24.3498 45.798C23.9018 45.798 23.5471 45.9147 23.2858 46.148C23.0338 46.372 22.9078 46.68 22.9078 47.072V48.136C23.3931 48.2013 23.8831 48.234 24.3778 48.234C24.8631 48.234 25.1898 48.1313 25.3578 47.926C25.5351 47.7113 25.6238 47.4313 25.6238 47.086ZM32.9258 45.532L31.0218 51.454C30.8724 51.8927 30.6344 52.112 30.3078 52.112C30.1211 52.112 29.9718 52.0653 29.8598 51.972C29.7571 51.8693 29.6684 51.7013 29.5938 51.468L27.6478 45.49C27.5918 45.3313 27.6244 45.1867 27.7458 45.056C27.8671 44.916 28.0118 44.846 28.1798 44.846C28.4224 44.846 28.5858 44.9673 28.6698 45.21L30.3078 50.488L31.9178 45.21C32.0018 44.9673 32.1651 44.846 32.4078 44.846C32.5758 44.846 32.7158 44.916 32.8278 45.056C32.9398 45.196 32.9724 45.3547 32.9258 45.532ZM36.4787 51.146C36.88 51.146 37.3654 51.0153 37.9347 50.754C37.9907 50.726 38.056 50.712 38.1307 50.712C38.2707 50.712 38.3874 50.7633 38.4807 50.866C38.574 50.9593 38.6207 51.0713 38.6207 51.202C38.6207 51.51 38.3687 51.7387 37.8647 51.888C37.3607 52.0373 36.8567 52.112 36.3527 52.112C35.578 52.112 34.9667 51.8973 34.5187 51.468C34.08 51.0293 33.8607 50.4693 33.8607 49.788V47.17C33.8607 46.47 34.0847 45.9007 34.5327 45.462C34.9807 45.0233 35.6107 44.804 36.4227 44.804C37.1787 44.804 37.7527 45.0093 38.1447 45.42C38.546 45.8213 38.7467 46.3767 38.7467 47.086C38.7467 48.4673 37.958 49.158 36.3807 49.158C35.9234 49.158 35.4474 49.116 34.9527 49.032V49.858C34.9527 50.2593 35.0834 50.5767 35.3447 50.81C35.606 51.034 35.984 51.146 36.4787 51.146ZM37.6687 47.086C37.6687 46.2273 37.244 45.798 36.3947 45.798C35.9467 45.798 35.592 45.9147 35.3307 46.148C35.0787 46.372 34.9527 46.68 34.9527 47.072V48.136C35.438 48.2013 35.928 48.234 36.4227 48.234C36.908 48.234 37.2347 48.1313 37.4027 47.926C37.58 47.7113 37.6687 47.4313 37.6687 47.086ZM40.1593 50.684V42.396C40.1593 42.2467 40.2106 42.1207 40.3133 42.018C40.4253 41.906 40.556 41.85 40.7053 41.85C40.864 41.85 40.9946 41.906 41.0973 42.018C41.2 42.1207 41.2513 42.2467 41.2513 42.396V50.684C41.2513 50.992 41.3166 51.2113 41.4473 51.342C41.5126 51.426 41.5453 51.5147 41.5453 51.608C41.5453 51.748 41.494 51.8693 41.3913 51.972C41.298 52.0653 41.1813 52.112 41.0413 52.112C40.4533 52.112 40.1593 51.636 40.1593 50.684Z" fill="black"/>
  </symbol>
  <symbol id="bicycle" viewBox="0 0 25 24">
    <g fill="none">
      <path
        d="M18.3075 21C17.4664 21 16.6443 20.7471 15.9449 20.2732C15.2456 19.7994 14.7005 19.1258 14.3787 18.3378C14.0568 17.5498 13.9726 16.6827 14.1367 15.8462C14.3008 15.0096 14.7058 14.2412 15.3005 13.6381C15.8952 13.035 16.653 12.6243 17.4779 12.4579C18.3028 12.2915 19.1579 12.3769 19.9349 12.7033C20.712 13.0297 21.3761 13.5824 21.8434 14.2916C22.3107 15.0008 22.5601 15.8346 22.5601 16.6875C22.5589 17.8309 22.1104 18.927 21.3132 19.7355C20.5159 20.544 19.435 20.9988 18.3075 21ZM18.3075 13.875C17.759 13.875 17.2228 14.04 16.7667 14.349C16.3106 14.658 15.9551 15.0973 15.7452 15.6112C15.5353 16.1251 15.4804 16.6906 15.5874 17.2362C15.6944 17.7818 15.9586 18.2829 16.3464 18.6762C16.7343 19.0696 17.2285 19.3374 17.7665 19.446C18.3045 19.5545 18.8621 19.4988 19.3689 19.2859C19.8756 19.073 20.3088 18.7126 20.6135 18.25C20.9183 17.7875 21.0809 17.2438 21.0809 16.6875C21.0801 15.9418 20.7876 15.227 20.2677 14.6997C19.7477 14.1725 19.0428 13.8759 18.3075 13.875Z"
        fill="#1D2E5B"/>
      <path
        d="M6.10452 21C5.26345 21 4.44126 20.7471 3.74193 20.2732C3.0426 19.7994 2.49753 19.1258 2.17567 18.3378C1.8538 17.5498 1.76959 16.6827 1.93367 15.8462C2.09776 15.0096 2.50278 14.2412 3.09751 13.6381C3.69224 13.035 4.44997 12.6243 5.27489 12.4579C6.09981 12.2915 6.95486 12.3769 7.73191 12.7033C8.50896 13.0297 9.17312 13.5824 9.6404 14.2916C10.1077 15.0008 10.3571 15.8346 10.3571 16.6875C10.3559 17.8309 9.90743 18.927 9.11019 19.7355C8.31294 20.544 7.232 20.9988 6.10452 21ZM6.10452 13.875C5.556 13.875 5.01978 14.04 4.5637 14.349C4.10761 14.658 3.75214 15.0973 3.54223 15.6112C3.33231 16.1251 3.27739 16.6906 3.3844 17.2362C3.49142 17.7818 3.75556 18.2829 4.14343 18.6762C4.5313 19.0696 5.02547 19.3374 5.56346 19.446C6.10145 19.5545 6.65909 19.4988 7.16586 19.2859C7.67264 19.073 8.10579 18.7126 8.41053 18.25C8.71528 17.7875 8.87794 17.2438 8.87794 16.6875C8.87708 15.9418 8.58461 15.227 8.06468 14.6997C7.54475 14.1725 6.83982 13.8759 6.10452 13.875Z"
        fill="#1D2E5B"/>
      <path
        d="M15.1643 6.00005C15.3591 6.00073 15.5522 5.96225 15.7322 5.88681C15.9123 5.81138 16.0758 5.7005 16.2134 5.56058C16.3509 5.42065 16.4598 5.25447 16.5336 5.07163C16.6074 4.88879 16.6448 4.69293 16.6435 4.49536C16.6456 4.29878 16.6091 4.10374 16.5361 3.92164C16.463 3.73954 16.3549 3.57403 16.218 3.4348C16.0812 3.29558 15.9183 3.18542 15.739 3.11077C15.5596 3.03612 15.3674 2.99848 15.1736 3.00005C14.9793 2.99943 14.7869 3.03762 14.6072 3.11243C14.4275 3.18725 14.2641 3.29722 14.1263 3.43607C13.9885 3.57493 13.8791 3.73994 13.8042 3.92169C13.7293 4.10344 13.6904 4.29838 13.6898 4.49536C13.6892 4.69234 13.7268 4.88752 13.8006 5.06974C13.8744 5.25197 13.9828 5.41767 14.1198 5.55739C14.2567 5.69712 14.4194 5.80812 14.5986 5.88407C14.7779 5.96002 14.9701 5.99943 15.1643 6.00005Z"
        fill="#1D2E5B"/>
      <path
        d="M17.3623 9.00003H15.3395C15.3063 9.00004 15.2738 8.99099 15.2452 8.97384C15.2167 8.95668 15.1932 8.93205 15.1773 8.90253L13.7101 6.17581C13.6068 5.97318 13.4578 5.79807 13.2753 5.66467C13.0928 5.53127 12.8819 5.44333 12.6596 5.40795C12.4374 5.37258 12.21 5.39077 11.996 5.46106C11.7819 5.53135 11.5872 5.65175 11.4276 5.81253L8.19845 9.11253C7.92716 9.39333 7.77317 9.76945 7.76857 10.1625C7.76857 10.9782 8.35099 11.2688 8.6237 11.4328C9.94107 12.2025 10.8688 12.7655 11.3777 13.0782C11.4048 13.0949 11.4271 13.1183 11.4427 13.1463C11.4582 13.1743 11.4664 13.2059 11.4665 13.238V16.478C11.4665 16.8816 11.7724 17.228 12.1704 17.2482C12.2704 17.253 12.3702 17.2373 12.464 17.2019C12.5577 17.1666 12.6434 17.1123 12.7159 17.0423C12.7884 16.9724 12.8461 16.8883 12.8856 16.7951C12.925 16.7018 12.9455 16.6015 12.9456 16.5V12.4688C12.9457 12.3497 12.9178 12.2324 12.8643 12.1264C12.8107 12.0204 12.7331 11.9289 12.6378 11.8594L10.9275 10.6121C10.906 10.5965 10.8881 10.5764 10.8749 10.5532C10.8617 10.53 10.8536 10.5043 10.851 10.4776C10.8485 10.451 10.8516 10.4241 10.8602 10.3988C10.8687 10.3734 10.8825 10.3503 10.9007 10.3308L12.8421 8.23128C12.862 8.20968 12.8866 8.19316 12.914 8.18307C12.9414 8.17297 12.9708 8.1696 12.9997 8.17321C13.0287 8.17682 13.0564 8.18731 13.0805 8.20384C13.1047 8.22037 13.1247 8.24246 13.1388 8.26831L14.1474 10.1143C14.2115 10.2313 14.3053 10.3288 14.4191 10.3966C14.5329 10.4644 14.6625 10.5001 14.7945 10.5H17.3831C17.4833 10.5002 17.5824 10.4796 17.6746 10.4397C17.7667 10.3998 17.8499 10.3413 17.919 10.2678C17.9882 10.1942 18.0419 10.1073 18.0769 10.012C18.1119 9.91685 18.1275 9.81542 18.1226 9.71394C18.1032 9.31035 17.7602 9.00003 17.3623 9.00003Z"
        fill="#1D2E5B"/>
    </g>
  </symbol>
  <symbol id="bus" viewBox="0 0 18 21">
    <g fill="none">
      <g clip-path="url(#clip-bus)">
        <path
          d="M4.34047 13.9485C4.34047 13.5699 4.20186 13.2467 3.92463 12.9788C3.64741 12.711 3.31289 12.5771 2.92108 12.5771C2.52927 12.5771 2.19475 12.711 1.91752 12.9788C1.6403 13.2467 1.50168 13.5699 1.50168 13.9485C1.50168 14.3271 1.6403 14.6503 1.91752 14.9181C2.19475 15.186 2.52927 15.3199 2.92108 15.3199C3.31289 15.3199 3.64741 15.186 3.92463 14.9181C4.20186 14.6503 4.34047 14.3271 4.34047 13.9485ZM15.6956 13.9485C15.6956 13.5699 15.557 13.2467 15.2798 12.9788C15.0026 12.711 14.668 12.5771 14.2762 12.5771C13.8844 12.5771 13.5499 12.711 13.2727 12.9788C12.9955 13.2467 12.8568 13.5699 12.8568 13.9485C12.8568 14.3271 12.9955 14.6503 13.2727 14.9181C13.5499 15.186 13.8844 15.3199 14.2762 15.3199C14.668 15.3199 15.0026 15.186 15.2798 14.9181C15.557 14.6503 15.6956 14.3271 15.6956 13.9485ZM15.1855 9.70563L14.3871 5.59135C14.3502 5.42706 14.267 5.29313 14.1376 5.18956C14.0082 5.08599 13.8585 5.0342 13.6885 5.0342H3.5088C3.33877 5.0342 3.18906 5.08599 3.05969 5.18956C2.93032 5.29313 2.84715 5.42706 2.81019 5.59135L2.01178 9.70563C1.97482 9.91992 2.02656 10.1092 2.16703 10.2735C2.30749 10.4378 2.48861 10.5199 2.71039 10.5199H14.4869C14.7087 10.5199 14.8898 10.4378 15.0303 10.2735C15.1707 10.1092 15.2225 9.91992 15.1855 9.70563ZM12.6794 3.14849C12.6794 3.00563 12.6277 2.88421 12.5242 2.78421C12.4207 2.68421 12.295 2.63421 12.1471 2.63421H5.05017C4.90232 2.63421 4.77664 2.68421 4.67314 2.78421C4.56965 2.88421 4.5179 3.00563 4.5179 3.14849C4.5179 3.29135 4.56965 3.41278 4.67314 3.51278C4.77664 3.61278 4.90232 3.66278 5.05017 3.66278H12.1471C12.295 3.66278 12.4207 3.61278 12.5242 3.51278C12.6277 3.41278 12.6794 3.29135 12.6794 3.14849ZM17.115 10.9163V17.3771H15.6956V18.7485C15.6956 19.1271 15.557 19.4503 15.2798 19.7181C15.0026 19.986 14.668 20.1199 14.2762 20.1199C13.8844 20.1199 13.5499 19.986 13.2727 19.7181C12.9955 19.4503 12.8568 19.1271 12.8568 18.7485V17.3771H4.34047V18.7485C4.34047 19.1271 4.20186 19.4503 3.92463 19.7181C3.64741 19.986 3.31289 20.1199 2.92108 20.1199C2.52927 20.1199 2.19475 19.986 1.91752 19.7181C1.6403 19.4503 1.50168 19.1271 1.50168 18.7485V17.3771H0.0822906V10.9163C0.0822906 10.1163 0.174699 9.31992 0.359516 8.52706L1.50168 3.66278C1.56822 3.10563 1.92861 2.61635 2.58286 2.19492C3.23712 1.77349 4.08727 1.45564 5.13334 1.24135C6.1794 1.02706 7.33451 0.919922 8.59866 0.919922C9.8628 0.919922 11.0179 1.02706 12.064 1.24135C13.11 1.45564 13.9602 1.77349 14.6144 2.19492C15.2687 2.61635 15.6291 3.10563 15.6956 3.66278L16.86 8.52706C17.03 9.25563 17.115 10.0521 17.115 10.9163Z"
          fill="#1D2E5B"/>
      </g>
    </g>
  </symbol>
  <symbol id="aircraft" viewBox="0 0 21 23">
    <g fill="none">
      <g clip-path="url(#clip-aircraft)">
        <path
          d="M16.7831 2.09314C16.0546 2.26635 15.3227 2.44038 15.0504 2.91723L12.9433 7.11585L1.62916 9.8059L1.17076 11.1474L9.82861 11.9662L8.35967 15.6009L5.07624 16.3816L4.25187 17.8101L6.62062 18.0673L6.89073 19.2357C7.01174 19.6498 7.43649 19.9263 7.79903 19.8401L8.89351 19.5799L10.1622 21.7433L10.9866 20.3148L10.1763 16.8098L12.5535 13.7795L17.0895 21.741L18.0042 20.7031L15.2128 8.62921L17.7762 4.73424C18.0519 4.25657 17.8721 3.47891 17.6914 2.69759C17.6019 2.31059 17.1457 2.00694 16.7831 2.09314Z"
          fill="#101D41"/>
      </g>
    </g>
  </symbol>
  <symbol id="walk" viewBox="0 0 21 24">
    <g fill="none">
      <path
        d="M14.9758 5.75992C15.9264 5.75992 16.697 4.90031 16.697 3.83992C16.697 2.77954 15.9264 1.91992 14.9758 1.91992C14.0253 1.91992 13.2547 2.77954 13.2547 3.83992C13.2547 4.90031 14.0253 5.75992 14.9758 5.75992Z"
        fill="#1D2E5B"/>
      <path
        d="M13.9234 10.5302C14.1209 10.8586 14.4043 11.1113 14.735 11.2538C15.0657 11.3964 15.4277 11.4219 15.7719 11.327L18.6257 10.5312L18.21 8.66881L15.3563 9.46465L14.1695 7.48033C13.9159 7.05655 13.5224 6.76184 13.0748 6.66049L9.76496 5.92129C9.39468 5.83839 9.01024 5.89379 8.671 6.07893C8.33176 6.26406 8.0566 6.56863 7.888 6.94561L6.46113 10.129L8.00074 10.9882L9.42761 7.80385L11.1204 8.18209L6.74341 16.32H2.92752V18.24H6.74341C7.3441 18.24 7.90952 17.8829 8.21933 17.3078L9.86996 14.2397L14.3184 15.2323L15.8812 20.4634L17.5129 19.8557L15.9509 14.6256C15.8545 14.3045 15.684 14.0174 15.4564 13.7933C15.2289 13.5691 14.9524 13.4158 14.6549 13.3488L12.0395 12.7661L13.5645 9.93025L13.9234 10.5302Z"
        fill="#1D2E5B"/>
    </g>
  </symbol>
  <symbol id="status" viewBox="0 0 8 8" fill="currentColor">
    <circle cx="4" cy="4" r="4"/>
  </symbol>
  <symbol id="like-selected" viewBox="0 0 21 20">
    <path
      d="M5.24886 1.25C8.01538 1.25 10.2561 3.44375 10.2561 6.15C10.2561 3.44375 12.4969 1.25 15.2634 1.25C18.0299 1.25 20.2707 3.44375 20.2707 6.15C20.2707 10.2288 16.2223 11.6675 10.7468 18.16C10.6866 18.2313 10.6114 18.2886 10.5267 18.3279C10.4419 18.3672 10.3496 18.3876 10.2561 18.3876C10.1627 18.3876 10.0704 18.3672 9.9856 18.3279C9.90084 18.2886 9.8257 18.2313 9.76542 18.16C4.28996 11.6675 0.241577 10.2288 0.241577 6.15C0.241577 3.44375 2.48233 1.25 5.24886 1.25Z"
      fill="#F02323"/>
  </symbol>
  <symbol id="like" viewBox="0 0 21 20">
    <path
      fill-rule="evenodd" clip-rule="evenodd"
      d="M10.2561 8.12436L11.3753 5.77557C11.6532 5.19396 12.1351 4.35764 12.8174 3.68149C13.4883 3.01585 14.292 2.5629 15.2634 2.5629C17.3615 2.5629 19.0189 4.30381 19.0189 6.39658C19.0189 7.9865 18.3254 9.10903 16.6805 10.8211C16.2586 11.2596 15.7779 11.7335 15.2459 12.2561C13.8589 13.6215 12.1339 15.3204 10.2561 17.5917C8.3784 15.3204 6.6534 13.6215 5.26638 12.2561C4.73436 11.7335 4.25241 11.2583 3.8318 10.8211C2.1869 9.10903 1.4934 7.9865 1.4934 6.39658C1.4934 4.30381 3.15081 2.5629 5.24886 2.5629C6.22027 2.5629 7.02394 3.01585 7.69491 3.68149C8.37715 4.35764 8.8591 5.19396 9.13701 5.77557L10.2561 8.12436ZM10.7468 19.0109C10.6866 19.0858 10.6114 19.146 10.5267 19.1873C10.4419 19.2286 10.3496 19.25 10.2561 19.25C10.1627 19.25 10.0704 19.2286 9.9856 19.1873C9.90084 19.146 9.8257 19.0858 9.76542 19.0109C7.76126 16.5138 5.94737 14.7283 4.45395 13.2591C1.86894 10.7134 0.241577 9.11297 0.241577 6.39658C0.241577 3.55414 2.48233 1.25 5.24886 1.25C7.25177 1.25 8.65255 2.62855 9.51005 3.88631C9.83552 4.36552 10.0834 4.82635 10.2561 5.18871C10.4727 4.73519 10.7221 4.29978 11.0022 3.88631C11.8597 2.62723 13.2605 1.25 15.2634 1.25C18.0299 1.25 20.2707 3.55414 20.2707 6.39658C20.2707 9.11297 18.6433 10.7134 16.0583 13.2591C14.5649 14.7296 12.751 16.5151 10.7468 19.0096V19.0109Z"
      fill="#192144"/>
  </symbol>
  <symbol id="businessman" viewBox="0 0 28 28">
    <g fill="none">
      <path
        d="M23.3758 23.2418V19.8933C23.3758 18.9558 23.2418 18.0182 22.7061 17.0806C22.1703 16.143 21.5006 15.3394 20.5631 14.8036C19.6255 14.1339 17.6164 14 16.6788 14L14.5358 16.277L15.3394 18.0182V22.0364L14 23.5097L12.6606 22.0364V18.0182L13.5982 16.277L11.3212 14C10.2497 14 8.24063 14.1339 7.30306 14.8036C6.36548 15.3394 5.82972 16.143 5.29396 17.0806C4.75821 18.0182 4.62427 18.8218 4.62427 19.8933V23.2418C4.62427 23.2418 8.10669 24.7151 14 24.7151C19.8934 24.7151 23.3758 23.2418 23.3758 23.2418Z"
        fill="#132576"/>
      <path
        d="M14 3.41895C11.4551 3.41895 9.98178 5.82985 10.3836 8.50864C10.7854 11.1874 12.1248 13.0626 14 13.0626C15.8751 13.0626 17.2145 11.1874 17.6163 8.50864C18.0181 5.69592 16.5448 3.41895 14 3.41895Z"
        fill="#132576"/>
    </g>
  </symbol>
  <symbol id="to-main-page" viewBox="0 0 32 16">
    <path fill-rule="evenodd" clip-rule="evenodd" d="M4 16H28C30.2091 16 32 14.2091 32 12V7C32 4.79086 30.2091 3 28 3H4V5H28C29.1046 5 30 5.89543 30 7V12C30 13.1046 29.1046 14 28 14H4V16Z" fill="white"/>
    <path d="M0 4L9 0.535898V7.4641L0 4Z" fill="white"/>
  </symbol>
</svg>
