<svg xmlns="http://www.w3.org/2000/svg">
  <symbol id="menu-burger" viewBox="0 0 25 11" fill="currentColor">
    <rect
      width="25"
      height="3"
      rx="1.5"/>
    <rect
      y="8"
      width="25"
      height="3"
      rx="1.5"/>
  </symbol>
  <symbol id="menu-close" viewBox="0 0 20 20">
    <line x1="0" y1="0" x2="20" y2="20" stroke="#CCCCCC" stroke-width="2"/>
    <line x1="20" y1="0" x2="0" y2="20" stroke="#CCCCCC" stroke-width="2"/>
  </symbol>
  <symbol id="auth-phone" viewBox="0 0 18 18">
    <path
      d="M8.97418 7.42388C8.97418 7.61288 9.12781 7.76138 9.31556 7.76138C9.70474 7.76138 10.0188 8.07526 10.0188 8.45663C10.0188 8.64225 10.1724 8.79413 10.3602 8.79413C10.5479 8.79413 10.7016 8.64225 10.7016 8.45663C10.7016 7.70064 10.0802 7.08638 9.31556 7.08638C9.12781 7.08638 8.97418 7.23826 8.97418 7.42388ZM14.5318 8.79413C14.723 8.79413 14.8732 8.64225 14.8732 8.45663C14.8732 5.42589 12.3811 2.96214 9.31556 2.96214C9.12781 2.96214 8.97418 3.114 8.97418 3.29964C8.97418 3.48526 9.12781 3.63714 9.31556 3.63714C12.0056 3.63714 14.1905 5.80051 14.1905 8.45663C14.1905 8.64225 14.3441 8.79413 14.5318 8.79413Z"
      fill="#161C35"/>
    <path
      d="M12.1046 8.45663C12.1046 8.64225 12.2582 8.79413 12.446 8.79413C12.6338 8.79413 12.7874 8.64225 12.7874 8.45663C12.7874 6.56326 11.2307 5.02426 9.31554 5.02426C9.12779 5.02426 8.97416 5.17614 8.97416 5.36176C8.97416 5.55076 9.12779 5.69926 9.31554 5.69926C10.8552 5.69926 12.1046 6.93788 12.1046 8.45663ZM9.31554 0.900002C9.12779 0.900002 8.97416 1.05188 8.97416 1.2375C8.97416 1.42314 9.12779 1.575 9.31554 1.575C13.1561 1.575 16.2797 4.66314 16.2797 8.45663C16.2797 8.64225 16.4299 8.79413 16.6211 8.79413C16.8088 8.79413 16.9624 8.64225 16.9624 8.45663C16.9624 4.28852 13.5316 0.900002 9.31554 0.900002ZM12.6508 12.0139L12.2036 12.2535C11.4492 12.6619 10.8621 13.7813 9.93104 12.9375L7.5 10.5L5.39993 8.45663C4.34484 7.1235 5.52624 6.80625 5.9393 6.05701L6.18168 5.61827C6.45478 5.11875 6.55377 4.55851 6.47185 3.99825C6.39333 3.43801 6.1373 2.92838 5.72764 2.52338C5.22924 2.03064 4.56696 1.76064 3.86031 1.76064C3.15365 1.76064 2.48796 2.03064 1.98953 2.52338L1.81545 2.69888C0.893721 3.61014 0.787894 5.1795 1.51503 7.1235C2.20119 8.97975 3.58379 10.9913 5.39993 12.7868C8.16851 15.5239 11.2512 17.1 13.4633 17.1C14.3372 17.1 15.078 16.8536 15.6037 16.3339L15.7813 16.1584C16.2763 15.669 16.5528 15.0143 16.5562 14.3089C16.5528 13.6204 16.2694 12.9454 15.7813 12.4628C14.9585 11.6494 13.6715 11.4671 12.6508 12.0139Z"
      fill="#161C35"/>
  </symbol>
  <symbol id="auth-mail" viewBox="0 0 16 14">
    <path
      d="M1.25913 2.60026L7.25913 6.36066C7.46073 6.48666 7.72153 6.54639 7.98393 6.54639C8.24633 6.54639 8.50713 6.48666 8.70873 6.36066L14.7087 2.60026C15.0999 2.35479 15.4695 1.39999 14.7519 1.39999H1.21673C0.499128 1.39999 0.868728 2.35479 1.25913 2.60026ZM14.8903 4.65639L8.70873 8.41493C8.43673 8.58106 8.24633 8.60066 7.98393 8.60066C7.72153 8.60066 7.53113 8.58106 7.25913 8.41493C6.98713 8.24879 1.55273 4.92519 1.10873 4.65546C0.796728 4.46506 0.799928 4.68813 0.799928 4.85986V11.6667C0.799928 12.0587 1.25273 12.6 1.59993 12.6H14.3999C14.7471 12.6 15.1999 12.0587 15.1999 11.6667V4.86079C15.1999 4.68906 15.2031 4.46599 14.8903 4.65639Z"
      fill="#161C35"/>
  </symbol>
  <symbol id="menu-phone" viewBox="0 0 36 34" fill="currentColor">
    <path
      fill-rule="evenodd" clip-rule="evenodd"
      d="M17.9999 2.17236C12.407 2.17236 6.80065 3.1177 4.76644 5.00191C3.07869 6.56509 2.51608 9.32664 2.32643 11.0751C2.32643 11.0751 2.30029 11.2479 2.30029 11.3222C2.30029 12.0079 2.88889 12.5578 3.60853 12.5578C3.69357 12.5578 6.84004 12.3168 8.73702 12.1686C8.78267 12.1623 8.82868 12.1562 8.87433 12.1439C9.58086 12.1255 10.1501 11.5817 10.1501 10.9083L10.1564 8.47406C10.1564 7.72035 10.8043 7.11481 11.6024 7.11481H24.3973C25.1956 7.11481 25.8435 7.72028 25.8435 8.47406L25.8499 10.9083C25.8499 11.5817 26.4191 12.1255 27.1255 12.1439C27.1709 12.1563 27.2169 12.1623 27.2631 12.1686C29.1602 12.3167 32.3066 12.5578 32.3913 12.5578C33.1107 12.5578 33.6997 12.0079 33.6997 11.3222C33.6997 11.2479 33.6736 11.0751 33.6736 11.0751C33.4838 9.32664 32.9218 6.56516 31.234 5.00191C29.1991 3.1177 23.5928 2.17236 17.9999 2.17236ZM17.9999 18.2355C16.5542 18.2355 15.3833 19.3413 15.3833 20.7067C15.3833 22.0721 16.5542 23.1778 17.9999 23.1778C19.4456 23.1778 20.6165 22.0721 20.6165 20.7067C20.6165 19.3413 19.4456 18.2355 17.9999 18.2355ZM16.0375 12.6751V11.1306C16.0375 10.2781 15.3047 9.58613 14.4021 9.58613C13.4995 9.58613 12.7668 10.2782 12.7668 11.1306V12.6751L3.94189 21.5779C3.33378 22.1402 2.95427 22.9245 2.95427 23.7897V26.2671C2.95427 27.6325 4.12528 28.7383 5.57089 28.7383H6.22509V30.2829C6.22509 31.1354 6.9579 31.8273 7.8605 31.8273C8.76309 31.8273 9.49583 31.1354 9.49583 30.2829V28.7383H26.504V30.2829C26.504 31.1354 27.2365 31.8273 28.1394 31.8273C29.042 31.8273 29.7746 31.1354 29.7746 30.2829V28.7383H30.4288C31.8745 28.7383 33.0454 27.6325 33.0454 26.2671V23.7897C33.0454 22.9245 32.6659 22.1401 32.0578 21.5779L23.2332 12.6751V11.1306C23.2332 10.2781 22.5003 9.58613 21.5977 9.58613C20.6951 9.58613 19.9625 10.2782 19.9625 11.1306V12.6751H16.0375ZM17.9999 15.7643C20.8913 15.7643 23.2332 17.976 23.2332 20.7067C23.2332 23.4375 20.8913 25.6494 17.9999 25.6494C15.1085 25.6494 12.7667 23.4375 12.7667 20.7067C12.7667 17.976 15.1085 15.7643 17.9999 15.7643Z"/>
  </symbol>
  <symbol id="menu-mail" viewBox="0 0 37 26" fill="currentColor">
    <path
      fill-rule="evenodd" clip-rule="evenodd"
      d="M32.2786 20.9327L23.6177 13L32.2786 5.06731L31.0976 3.80529L18.4999 15.3438L5.90234 3.80529L4.72131 5.06731L13.3822 13L4.72131 20.9327L5.90234 22.1947L14.6616 14.1719L18.4999 17.6875L22.3383 14.1719L31.0976 22.1947L32.2786 20.9327ZM3.15187 0.5C1.53384 0.5 0.222168 1.89768 0.222168 3.61572V22.3843C0.222168 24.105 1.5232 25.5 3.15187 25.5H33.848C35.4661 25.5 36.7777 24.1023 36.7777 22.3843V3.61572C36.7777 1.89496 35.4767 0.5 33.848 0.5H3.15187Z"/>
  </symbol>
  <symbol id="arrow-forward" viewBox="0 0 11 12" fill="currentColor">
    <path d="M10.0698 6.07495L0.157238 11.7041L0.157238 0.445786L10.0698 6.07495Z"/>
  </symbol>
  <symbol id="fb" viewBox="0 0 14 28">
    <path
      d="M9.53 27.75H2.71V14.85H0V8.47H2.63C2.43 5.58 2.93 3.47 4.15 2.03C4.73171 1.39087 5.44042 0.8802 6.23079 0.530647C7.02116 0.181094 7.87578 0.000357734 8.74 0L13.52 0V6.15H9.76C9.53848 6.90214 9.4538 7.68794 9.51 8.47H13.51V14.85H9.51L9.53 27.75ZM4.22 26.25H8V13.35H12V10H8V9.24C8 7.24 8 5.45 9 4.78L9.19 4.65H12V1.5H8.78C8.12565 1.49154 7.47682 1.62071 6.87559 1.87911C6.27436 2.13752 5.73416 2.5194 5.29 3C4.29 4.23 3.88 6.29 4.19 9.14L4.29 9.97H1.5V13.35H4.22V26.25Z"
      fill="#192144"/>
  </symbol>
  <symbol id="vk" viewBox="0 0 32 17">
    <path
      d="M25.9461 15.7775C25.2083 15.761 24.4891 15.5431 23.8661 15.1475C23.2157 14.7079 22.6184 14.1945 22.0861 13.6175C21.6461 13.1775 20.9161 12.4375 20.6361 12.4375C20.3561 12.4375 20.1561 13.3575 20.1661 14.0075C20.1703 14.4562 20.0021 14.8894 19.6961 15.2175C19.3481 15.5018 18.9234 15.6758 18.4761 15.7175H16.5561C13.7965 15.6568 11.1541 14.59 9.12606 12.7175C5.44606 9.34753 2.28606 2.90753 2.15606 2.62753C2.03206 2.39361 1.98013 2.12821 2.00683 1.86481C2.03353 1.6014 2.13765 1.35181 2.30606 1.14753C2.6872 0.829675 3.16985 0.659328 3.66606 0.667532H7.74606H7.86606C8.20364 0.716784 8.52722 0.835995 8.81606 1.01753C9.08788 1.1998 9.30552 1.45198 9.44606 1.74753C9.87724 2.6706 10.3717 3.56273 10.9261 4.41753C12.2361 6.41753 12.8161 6.87753 13.0261 6.97753C13.2597 6.03979 13.324 5.06788 13.2161 4.10753C13.2511 3.67014 13.179 3.2308 13.0061 2.82753C12.7865 2.65191 12.5169 2.55038 12.2361 2.53753L11.5061 1.84753C11.3661 1.18753 12.0961 0.617532 12.6061 0.397532C13.6238 0.0786297 14.6916 -0.0501836 15.7561 0.017532H16.4661C17.1881 -0.00127074 17.9099 0.0658674 18.6161 0.217532C20.3161 0.577532 20.2561 1.94753 20.1861 3.52753C20.1861 3.98753 20.1361 4.52753 20.1361 5.14753C20.1361 5.29753 20.1361 5.45753 20.1361 5.62753C20.0967 6.06289 20.1271 6.50174 20.2261 6.92753C21.0586 6.23108 21.7597 5.39116 22.2961 4.44753C22.875 3.55527 23.3832 2.61908 23.8161 1.64753C23.9479 1.34025 24.1739 1.08272 24.4614 0.912012C24.7489 0.741299 25.0832 0.666204 25.4161 0.697532H29.6961C29.8224 0.685471 29.9497 0.685471 30.0761 0.697532C31.0761 0.697532 31.6661 0.987532 31.9061 1.54753C32.1461 2.10753 32.0761 3.20753 29.5461 6.15753L28.5461 7.28753C28.0616 7.75797 27.6443 8.29301 27.3061 8.87753C27.6848 9.30811 28.1147 9.69093 28.5861 10.0175C29.7353 10.8835 30.7468 11.9186 31.5861 13.0875C31.7829 13.3148 31.9117 13.593 31.9576 13.8901C32.0036 14.1873 31.965 14.4914 31.8461 14.7675C31.6365 15.0734 31.3561 15.3241 31.0288 15.4982C30.7014 15.6723 30.3368 15.7647 29.9661 15.7675L26.1761 15.8175L25.9461 15.7775ZM20.6361 10.9375C21.5361 10.9375 22.3161 11.7275 23.1461 12.5575C23.5944 13.0471 24.0977 13.4833 24.6461 13.8575C25.0607 14.1333 25.5481 14.2795 26.0461 14.2775H26.1461L29.9461 14.2275C30.1335 14.2168 30.317 14.1692 30.4861 14.0875L30.3861 13.9275C29.6291 12.8959 28.7263 11.9797 27.7061 11.2075C26.5161 10.2075 25.9061 9.73753 25.8361 8.96753C25.7661 8.19753 26.3261 7.52753 27.4461 6.25753L28.4461 5.14753C29.2903 4.28639 29.9834 3.28908 30.4961 2.19753C30.2729 2.1843 30.0492 2.1843 29.8261 2.19753H25.4561C25.377 2.17986 25.2951 2.17986 25.2161 2.19753C24.7532 3.25898 24.2012 4.27929 23.5661 5.24753C21.6761 8.06753 20.7861 8.44753 20.1561 8.44753C19.9607 8.44753 19.7684 8.39945 19.5961 8.30753C18.5961 7.73753 18.5961 6.46753 18.6561 5.54753C18.6561 5.39753 18.6561 5.24753 18.6561 5.11753C18.6561 4.46753 18.6561 3.90753 18.7061 3.42753C18.7861 1.74753 18.7061 1.73753 18.3261 1.64753C17.7138 1.52655 17.09 1.4729 16.4661 1.48753H15.7761C15.1411 1.47441 14.5061 1.50784 13.8761 1.58753C13.9715 1.65784 14.0558 1.74212 14.1261 1.83753C14.5385 2.48787 14.7442 3.24794 14.7161 4.01753C14.8461 5.66753 14.7761 7.81753 13.7161 8.33753C13.5284 8.42537 13.3233 8.4698 13.1161 8.46753C12.1861 8.46753 11.2661 7.58753 9.69606 5.20753C9.09358 4.29624 8.5556 3.34392 8.08606 2.35753L8.00606 2.25753C7.90508 2.20606 7.79736 2.16903 7.68606 2.14753H3.68606H3.61606C4.20606 3.36753 7.00606 8.76753 10.1361 11.5975C11.8936 13.2122 14.1708 14.1451 16.5561 14.2275H18.4061C18.5004 14.2074 18.5914 14.1737 18.6761 14.1275C18.6761 14.1275 18.6761 14.1275 18.6761 14.0375C18.6761 13.7675 18.6761 11.4375 20.2561 11.0375C20.3784 10.9894 20.5059 10.9558 20.6361 10.9375Z"
      fill="#192144"/>
  </symbol>
  <symbol id="in" viewBox="0 0 24 24">
    <path
      d="M17.28 2.40094C18.4249 2.40347 19.5223 2.85943 20.3319 3.66904C21.1415 4.47865 21.5974 5.57598 21.6 6.72094V17.2809C21.5974 18.4259 21.1415 19.5232 20.3319 20.3328C19.5223 21.1424 18.4249 21.5984 17.28 21.6009H6.71996C5.57667 21.5959 4.48179 21.1388 3.67426 20.3295C2.86672 19.5201 2.41208 18.4242 2.40956 17.2809V6.72094C2.41208 5.57764 2.86672 4.48175 3.67426 3.67241C4.48179 2.86308 5.57667 2.406 6.71996 2.40094H17.28ZM17.28 0.960938H6.71996C5.19231 0.960938 3.72724 1.56779 2.64703 2.648C1.56682 3.72821 0.959961 5.19329 0.959961 6.72094L0.959961 17.2809C0.959961 18.8086 1.56682 20.2737 2.64703 21.3539C3.72724 22.4341 5.19231 23.0409 6.71996 23.0409H17.28C18.8076 23.0409 20.2727 22.4341 21.3529 21.3539C22.4331 20.2737 23.04 18.8086 23.04 17.2809V6.72094C23.04 5.19329 22.4331 3.72821 21.3529 2.648C20.2727 1.56779 18.8076 0.960938 17.28 0.960938V0.960938Z"
      fill="#192144"/>
    <path
      d="M12.0095 7.75642C12.8507 7.75642 13.6729 8.00584 14.3723 8.47314C15.0716 8.94045 15.6167 9.60464 15.9386 10.3817C16.2605 11.1588 16.3447 12.0139 16.1806 12.8389C16.0165 13.6639 15.6115 14.4216 15.0167 15.0164C14.422 15.6112 13.6642 16.0162 12.8392 16.1803C12.0143 16.3444 11.1592 16.2602 10.3821 15.9383C9.60496 15.6164 8.94076 15.0713 8.47346 14.3719C8.00616 13.6726 7.75673 12.8503 7.75673 12.0092C7.75547 11.4504 7.86461 10.8968 8.07788 10.3802C8.29115 9.8637 8.60437 9.39437 8.99953 8.99921C9.39469 8.60405 9.86402 8.29084 10.3806 8.07756C10.8971 7.86429 11.4507 7.75515 12.0095 7.75642ZM12.0095 6.31641C10.8832 6.31451 9.78161 6.64678 8.84417 7.27115C7.90673 7.89553 7.17558 8.78396 6.74323 9.82402C6.31088 10.8641 6.19678 12.009 6.41535 13.1139C6.63392 14.2189 7.17535 15.2341 7.97112 16.0312C8.76689 16.8283 9.78123 17.3715 10.8858 17.5919C11.9903 17.8124 13.1355 17.7002 14.1763 17.2696C15.217 16.839 16.1067 16.1093 16.7327 15.173C17.3586 14.2366 17.6927 13.1356 17.6927 12.0092C17.694 11.2621 17.5479 10.522 17.2629 9.8314C16.9778 9.14077 16.5594 8.51313 16.0316 7.98438C15.5037 7.45563 14.8768 7.03615 14.1866 6.74994C13.4965 6.46373 12.7567 6.31641 12.0095 6.31641Z"
      fill="#192144"/>
    <path
      d="M17.9041 7.41264C18.6145 7.41264 19.1905 6.8367 19.1905 6.12624C19.1905 5.41578 18.6145 4.83984 17.9041 4.83984C17.1936 4.83984 16.6177 5.41578 16.6177 6.12624C16.6177 6.8367 17.1936 7.41264 17.9041 7.41264Z"
      fill="#192144"/>
  </symbol>
</svg>
