<svg xmlns="http://www.w3.org/2000/svg">
  <symbol id="menu-burger" viewBox="0 0 25 11" fill="currentColor">
    <rect
      width="25"
      height="3"
      rx="1.5"/>
    <rect
      y="8"
      width="25"
      height="3"
      rx="1.5"/>
  </symbol>
  <symbol id="menu-close" viewBox="0 0 20 20">
    <line x1="0" y1="0" x2="20" y2="20" stroke="#CCCCCC" stroke-width="2"/>
    <line x1="20" y1="0" x2="0" y2="20" stroke="#CCCCCC" stroke-width="2"/>
  </symbol>
  <symbol id="auth-phone" viewBox="0 0 18 18">
    <path
      d="M8.97418 7.42388C8.97418 7.61288 9.12781 7.76138 9.31556 7.76138C9.70474 7.76138 10.0188 8.07526 10.0188 8.45663C10.0188 8.64225 10.1724 8.79413 10.3602 8.79413C10.5479 8.79413 10.7016 8.64225 10.7016 8.45663C10.7016 7.70064 10.0802 7.08638 9.31556 7.08638C9.12781 7.08638 8.97418 7.23826 8.97418 7.42388ZM14.5318 8.79413C14.723 8.79413 14.8732 8.64225 14.8732 8.45663C14.8732 5.42589 12.3811 2.96214 9.31556 2.96214C9.12781 2.96214 8.97418 3.114 8.97418 3.29964C8.97418 3.48526 9.12781 3.63714 9.31556 3.63714C12.0056 3.63714 14.1905 5.80051 14.1905 8.45663C14.1905 8.64225 14.3441 8.79413 14.5318 8.79413Z"
      fill="#161C35"/>
    <path
      d="M12.1046 8.45663C12.1046 8.64225 12.2582 8.79413 12.446 8.79413C12.6338 8.79413 12.7874 8.64225 12.7874 8.45663C12.7874 6.56326 11.2307 5.02426 9.31554 5.02426C9.12779 5.02426 8.97416 5.17614 8.97416 5.36176C8.97416 5.55076 9.12779 5.69926 9.31554 5.69926C10.8552 5.69926 12.1046 6.93788 12.1046 8.45663ZM9.31554 0.900002C9.12779 0.900002 8.97416 1.05188 8.97416 1.2375C8.97416 1.42314 9.12779 1.575 9.31554 1.575C13.1561 1.575 16.2797 4.66314 16.2797 8.45663C16.2797 8.64225 16.4299 8.79413 16.6211 8.79413C16.8088 8.79413 16.9624 8.64225 16.9624 8.45663C16.9624 4.28852 13.5316 0.900002 9.31554 0.900002ZM12.6508 12.0139L12.2036 12.2535C11.4492 12.6619 10.8621 13.7813 9.93104 12.9375L7.5 10.5L5.39993 8.45663C4.34484 7.1235 5.52624 6.80625 5.9393 6.05701L6.18168 5.61827C6.45478 5.11875 6.55377 4.55851 6.47185 3.99825C6.39333 3.43801 6.1373 2.92838 5.72764 2.52338C5.22924 2.03064 4.56696 1.76064 3.86031 1.76064C3.15365 1.76064 2.48796 2.03064 1.98953 2.52338L1.81545 2.69888C0.893721 3.61014 0.787894 5.1795 1.51503 7.1235C2.20119 8.97975 3.58379 10.9913 5.39993 12.7868C8.16851 15.5239 11.2512 17.1 13.4633 17.1C14.3372 17.1 15.078 16.8536 15.6037 16.3339L15.7813 16.1584C16.2763 15.669 16.5528 15.0143 16.5562 14.3089C16.5528 13.6204 16.2694 12.9454 15.7813 12.4628C14.9585 11.6494 13.6715 11.4671 12.6508 12.0139Z"
      fill="#161C35"/>
  </symbol>
  <symbol id="auth-mail" viewBox="0 0 16 14">
    <path
      d="M1.25913 2.60026L7.25913 6.36066C7.46073 6.48666 7.72153 6.54639 7.98393 6.54639C8.24633 6.54639 8.50713 6.48666 8.70873 6.36066L14.7087 2.60026C15.0999 2.35479 15.4695 1.39999 14.7519 1.39999H1.21673C0.499128 1.39999 0.868728 2.35479 1.25913 2.60026ZM14.8903 4.65639L8.70873 8.41493C8.43673 8.58106 8.24633 8.60066 7.98393 8.60066C7.72153 8.60066 7.53113 8.58106 7.25913 8.41493C6.98713 8.24879 1.55273 4.92519 1.10873 4.65546C0.796728 4.46506 0.799928 4.68813 0.799928 4.85986V11.6667C0.799928 12.0587 1.25273 12.6 1.59993 12.6H14.3999C14.7471 12.6 15.1999 12.0587 15.1999 11.6667V4.86079C15.1999 4.68906 15.2031 4.46599 14.8903 4.65639Z"
      fill="#161C35"/>
  </symbol>
  <symbol id="menu-phone" viewBox="0 0 36 34" fill="currentColor">
    <path fill-rule="evenodd" clip-rule="evenodd" d="M17.9999 2.17236C12.407 2.17236 6.80065 3.1177 4.76644 5.00191C3.07869 6.56509 2.51608 9.32664 2.32643 11.0751C2.32643 11.0751 2.30029 11.2479 2.30029 11.3222C2.30029 12.0079 2.88889 12.5578 3.60853 12.5578C3.69357 12.5578 6.84004 12.3168 8.73702 12.1686C8.78267 12.1623 8.82868 12.1562 8.87433 12.1439C9.58086 12.1255 10.1501 11.5817 10.1501 10.9083L10.1564 8.47406C10.1564 7.72035 10.8043 7.11481 11.6024 7.11481H24.3973C25.1956 7.11481 25.8435 7.72028 25.8435 8.47406L25.8499 10.9083C25.8499 11.5817 26.4191 12.1255 27.1255 12.1439C27.1709 12.1563 27.2169 12.1623 27.2631 12.1686C29.1602 12.3167 32.3066 12.5578 32.3913 12.5578C33.1107 12.5578 33.6997 12.0079 33.6997 11.3222C33.6997 11.2479 33.6736 11.0751 33.6736 11.0751C33.4838 9.32664 32.9218 6.56516 31.234 5.00191C29.1991 3.1177 23.5928 2.17236 17.9999 2.17236ZM17.9999 18.2355C16.5542 18.2355 15.3833 19.3413 15.3833 20.7067C15.3833 22.0721 16.5542 23.1778 17.9999 23.1778C19.4456 23.1778 20.6165 22.0721 20.6165 20.7067C20.6165 19.3413 19.4456 18.2355 17.9999 18.2355ZM16.0375 12.6751V11.1306C16.0375 10.2781 15.3047 9.58613 14.4021 9.58613C13.4995 9.58613 12.7668 10.2782 12.7668 11.1306V12.6751L3.94189 21.5779C3.33378 22.1402 2.95427 22.9245 2.95427 23.7897V26.2671C2.95427 27.6325 4.12528 28.7383 5.57089 28.7383H6.22509V30.2829C6.22509 31.1354 6.9579 31.8273 7.8605 31.8273C8.76309 31.8273 9.49583 31.1354 9.49583 30.2829V28.7383H26.504V30.2829C26.504 31.1354 27.2365 31.8273 28.1394 31.8273C29.042 31.8273 29.7746 31.1354 29.7746 30.2829V28.7383H30.4288C31.8745 28.7383 33.0454 27.6325 33.0454 26.2671V23.7897C33.0454 22.9245 32.6659 22.1401 32.0578 21.5779L23.2332 12.6751V11.1306C23.2332 10.2781 22.5003 9.58613 21.5977 9.58613C20.6951 9.58613 19.9625 10.2782 19.9625 11.1306V12.6751H16.0375ZM17.9999 15.7643C20.8913 15.7643 23.2332 17.976 23.2332 20.7067C23.2332 23.4375 20.8913 25.6494 17.9999 25.6494C15.1085 25.6494 12.7667 23.4375 12.7667 20.7067C12.7667 17.976 15.1085 15.7643 17.9999 15.7643Z"/>
  </symbol>
  <symbol id="menu-mail" viewBox="0 0 37 26" fill="currentColor">
    <path fill-rule="evenodd" clip-rule="evenodd" d="M32.2786 20.9327L23.6177 13L32.2786 5.06731L31.0976 3.80529L18.4999 15.3438L5.90234 3.80529L4.72131 5.06731L13.3822 13L4.72131 20.9327L5.90234 22.1947L14.6616 14.1719L18.4999 17.6875L22.3383 14.1719L31.0976 22.1947L32.2786 20.9327ZM3.15187 0.5C1.53384 0.5 0.222168 1.89768 0.222168 3.61572V22.3843C0.222168 24.105 1.5232 25.5 3.15187 25.5H33.848C35.4661 25.5 36.7777 24.1023 36.7777 22.3843V3.61572C36.7777 1.89496 35.4767 0.5 33.848 0.5H3.15187Z"/>
  </symbol>
</svg>
