<svg width="43" height="39" viewBox="0 0 43 39" fill="none" xmlns="http://www.w3.org/2000/svg">
<path d="M3.34155 35.349H8.33248V37.6688C8.33248 38.2211 7.88477 38.6688 7.33248 38.6688H4.34155C3.78927 38.6688 3.34155 38.2211 3.34155 37.6688V35.349Z" fill="#1D2959"/>
<path d="M34.2034 35.349H39.1943V37.6688C39.1943 38.2211 38.7466 38.6688 38.1943 38.6688H35.2034C34.6511 38.6688 34.2034 38.2211 34.2034 37.6688V35.349Z" fill="#1D2959"/>
<path fill-rule="evenodd" clip-rule="evenodd" d="M23.9206 2.93804C22.9471 2.55374 21.8837 2.24535 21.1121 2.26056C20.3858 2.27488 19.391 2.58611 18.4834 2.96056C17.9754 3.1702 17.4737 3.40137 16.9901 3.6628L16.9869 3.66455C16.4148 3.97905 15.6945 3.77264 15.3784 3.20325C15.0622 2.63378 15.2697 1.91701 15.8419 1.6023C16.0085 1.51188 16.1774 1.42555 16.3474 1.34147C16.6531 1.19024 17.0821 0.9881 17.5768 0.783995C18.5255 0.392564 19.8679 0.024811 21.0653 0.00120765C22.3395 -0.0239095 23.7772 0.346681 24.7935 0.747828C25.4275 0.998099 26.0526 1.27466 26.6534 1.59671L26.6541 1.59711C27.2292 1.90657 27.4433 2.62141 27.1324 3.19375C26.8232 3.76289 26.0945 3.97184 25.5246 3.66786C25.3789 3.59088 25.2311 3.51777 25.0826 3.4464C24.7923 3.30694 24.3855 3.12153 23.9206 2.93804Z" fill="#8A4A38"/>
<path fill-rule="evenodd" clip-rule="evenodd" d="M15.9931 1.44998C15.4621 1.44998 15.0317 1.88038 15.0317 2.41131V3.02596C15.0317 3.4684 15.3904 3.82707 15.8328 3.82707H15.8545V6.89417H16.6933V3.80514H16.475C17.0221 3.69862 17.4351 3.2168 17.4351 2.63853C17.4351 1.98211 16.9029 1.44998 16.2465 1.44998H15.9931Z" fill="#F6EF3E"/>
<path fill-rule="evenodd" clip-rule="evenodd" d="M26.5125 1.44998C27.0435 1.44998 27.4739 1.88038 27.4739 2.41131V3.02596C27.4739 3.4684 27.1152 3.82707 26.6728 3.82707H26.6511V6.89417H25.8123V3.80514H26.0307C25.4835 3.69862 25.0705 3.2168 25.0705 2.63853C25.0705 1.98211 25.6027 1.44998 26.2591 1.44998H26.5125Z" fill="#F6EF3E"/>
<path d="M0 15.5203C0 10.5497 4.02944 6.52026 9 6.52026H33.5399C38.5105 6.52026 42.5399 10.5497 42.5399 15.5203V35.349H0V15.5203Z" fill="#8A4A38"/>
<ellipse cx="6.68408" cy="27.9276" rx="4.16748" ry="4.12104" fill="#EF9A9A"/>
<ellipse rx="4.01571" ry="7.727" transform="matrix(0.700848 -0.71331 0.721334 0.692588 32.7661 28.0696)" fill="#93C6EB"/>
<rect width="13.6922" height="7.62634" transform="matrix(0.688909 -0.724848 0.732721 0.680529 16.3958 17.905)" fill="#C2DEA3"/>
<rect width="6.95591" height="5.21665" rx="1" transform="matrix(0.733892 0.679267 -0.687658 0.726035 8.78491 11.1394)" fill="#C49A6C"/>
<rect x="8.33276" y="19.3622" width="5.86679" height="16.7996" fill="#F57B20"/>
<path d="M8.33276 5.43422H14.1996V19.982C14.1996 21.602 12.8862 22.9154 11.2662 22.9154C9.64609 22.9154 8.33276 21.6021 8.33276 19.982V5.43422Z" fill="#F6A725"/>
<rect x="7.51953" y="18.042" width="7.49871" height="1.64937" fill="#F6EF3E"/>
<rect x="28.3462" y="19.3622" width="5.86679" height="16.7996" fill="#F57B20"/>
<path d="M28.3462 5.43422H34.213V19.982C34.213 21.602 32.8997 22.9154 31.2796 22.9154C29.6595 22.9154 28.3462 21.6021 28.3462 19.982V5.43422Z" fill="#F6A725"/>
<rect x="27.533" y="18.042" width="7.49871" height="1.64937" fill="#F6EF3E"/>
</svg>
