<svg width="11" height="21" viewBox="0 0 11 21" fill="none" xmlns="http://www.w3.org/2000/svg">
<path d="M7.48786 20.7695H2.12929V11.2513H0V6.54393H2.06643C1.90929 4.41158 2.30214 2.85474 3.26071 1.79225C3.71777 1.32067 4.27461 0.94388 4.89562 0.685966C5.51662 0.428052 6.18812 0.294698 6.86714 0.294434L10.6229 0.294434V4.83215H7.66857C7.49452 5.3871 7.42799 5.9669 7.47214 6.54393H10.615V11.2513H7.47214L7.48786 20.7695ZM3.31571 19.6627H6.28571V10.1446H9.42857V7.67283H6.28571V7.11207C6.28571 5.63639 6.28571 4.31566 7.07143 3.82131L7.22071 3.72539H9.42857V1.40119H6.89857C6.38444 1.39495 5.87465 1.49025 5.40225 1.68092C4.92986 1.87158 4.50541 2.15335 4.15643 2.50795C3.37071 3.41549 3.04857 4.93544 3.29214 7.03829L3.37071 7.65069H1.17857V10.1446H3.31571V19.6627Z" fill="#192144"/>
</svg>
