<svg width="18" height="18" viewBox="0 0 18 18" fill="none" xmlns="http://www.w3.org/2000/svg">
<g clip-path="url(#clip0_17607_1273)">
<path d="M12.9601 2.03319C13.8189 2.03506 14.6419 2.37148 15.2491 2.96885C15.8563 3.56621 16.1982 4.37586 16.2001 5.22066V13.0122C16.1982 13.857 15.8563 14.6667 15.2491 15.2641C14.6419 15.8614 13.8189 16.1978 12.9601 16.1997H5.04014C4.18267 16.196 3.36151 15.8587 2.75586 15.2616C2.15021 14.6644 1.80923 13.8558 1.80734 13.0122V5.22066C1.80923 4.37709 2.15021 3.5685 2.75586 2.97134C3.36151 2.37418 4.18267 2.03693 5.04014 2.03319H12.9601ZM12.9601 0.970703H5.04014C3.8944 0.970703 2.79559 1.41846 1.98544 2.21549C1.17528 3.01251 0.720139 4.0935 0.720139 5.22066L0.720139 13.0122C0.720139 14.1394 1.17528 15.2204 1.98544 16.0174C2.79559 16.8144 3.8944 17.2622 5.04014 17.2622H12.9601C14.1059 17.2622 15.2047 16.8144 16.0148 16.0174C16.825 15.2204 17.2801 14.1394 17.2801 13.0122V5.22066C17.2801 4.0935 16.825 3.01251 16.0148 2.21549C15.2047 1.41846 14.1059 0.970703 12.9601 0.970703V0.970703Z" fill="#192144"/>
<path d="M9.007 5.98486C9.63784 5.98486 10.2545 6.16889 10.779 6.51369C11.3036 6.85848 11.7124 7.34855 11.9538 7.92193C12.1952 8.4953 12.2584 9.12622 12.1353 9.73491C12.0122 10.3436 11.7085 10.9027 11.2624 11.3416C10.8163 11.7804 10.248 12.0793 9.62926 12.2003C9.01054 12.3214 8.36921 12.2593 7.78639 12.0218C7.20357 11.7843 6.70542 11.3821 6.35494 10.8661C6.00446 10.35 5.8174 9.74336 5.8174 9.12274C5.81645 8.71041 5.8983 8.30195 6.05826 7.92082C6.21821 7.53969 6.45312 7.19341 6.74949 6.90184C7.04586 6.61028 7.39786 6.37918 7.78527 6.22181C8.17268 6.06445 8.58787 5.98392 9.007 5.98486ZM9.007 4.92237C8.16225 4.92097 7.33606 5.16612 6.63298 5.62681C5.9299 6.0875 5.38153 6.74302 5.05727 7.51042C4.73301 8.27781 4.64743 9.12259 4.81136 9.93784C4.97529 10.7531 5.38136 11.5022 5.97819 12.0903C6.57501 12.6785 7.33577 13.0792 8.16419 13.2419C8.99261 13.4045 9.85145 13.3218 10.632 13.0041C11.4126 12.6863 12.0799 12.148 12.5493 11.4571C13.0188 10.7662 13.2694 9.9538 13.2694 9.12274C13.2703 8.57148 13.1608 8.02544 12.947 7.51586C12.7332 7.00629 12.4194 6.54319 12.0235 6.15306C11.6276 5.76293 11.1574 5.45342 10.6398 5.24224C10.1222 5.03107 9.56735 4.92237 9.007 4.92237Z" fill="#192144"/>
<path d="M13.4282 5.73083C13.9611 5.73083 14.393 5.30588 14.393 4.78168C14.393 4.25747 13.9611 3.83252 13.4282 3.83252C12.8954 3.83252 12.4634 4.25747 12.4634 4.78168C12.4634 5.30588 12.8954 5.73083 13.4282 5.73083Z" fill="#192144"/>
</g>
<defs>
<clipPath id="clip0_17607_1273">
<rect width="18" height="17.7081" fill="white" transform="translate(0 0.261719)"/>
</clipPath>
</defs>
</svg>
