<svg width="31" height="32" viewBox="0 0 31 32" fill="none" xmlns="http://www.w3.org/2000/svg">
<ellipse cx="15.3192" cy="15.8487" rx="15.3192" ry="15.3561" fill="#F9EAEA"/>
<g clip-path="url(#clip0_63_105)">
<path d="M12.2553 10.4741C13.9481 10.4741 15.3192 11.8216 15.3192 13.4838C15.3192 11.8216 16.6902 10.4741 18.383 10.4741C20.0757 10.4741 21.4468 11.8216 21.4468 13.4838C21.4468 15.9892 18.9697 16.8729 15.6194 20.8609C15.5825 20.9047 15.5365 20.9399 15.4847 20.9641C15.4328 20.9882 15.3763 21.0007 15.3192 21.0007C15.262 21.0007 15.2055 20.9882 15.1536 20.9641C15.1018 20.9399 15.0558 20.9047 15.0189 20.8609C11.6686 16.8729 9.19149 15.9892 9.19149 13.4838C9.19149 11.8216 10.5626 10.4741 12.2553 10.4741Z" fill="#F02323"/>
</g>
<defs>
<clipPath id="clip0_63_105">
<rect width="12.2553" height="12.2849" fill="white" transform="translate(9.19149 9.70624)"/>
</clipPath>
</defs>
</svg>
