<svg width="30" height="31" viewBox="0 0 30 31" fill="none" xmlns="http://www.w3.org/2000/svg">
<circle cx="15" cy="15.79" r="15" fill="#E2E5F2"/>
<g clip-path="url(#clip0_86_5049)">
<g opacity="0.5">
<path fill-rule="evenodd" clip-rule="evenodd" d="M15 14.6647L15.6705 13.2554C15.837 12.9064 16.1258 12.4046 16.5345 11.9989C16.9365 11.5996 17.418 11.3278 18 11.3278C19.257 11.3278 20.25 12.3723 20.25 13.628C20.25 14.5819 19.8345 15.2555 18.849 16.2827C18.5963 16.5458 18.3083 16.8302 17.9895 17.1437C17.1585 17.9629 16.125 18.9823 15 20.3451C13.875 18.9823 12.8415 17.9629 12.0105 17.1437C11.6918 16.8302 11.403 16.545 11.151 16.2827C10.1655 15.2555 9.75 14.5819 9.75 13.628C9.75 12.3723 10.743 11.3278 12 11.3278C12.582 11.3278 13.0635 11.5996 13.4655 11.9989C13.8743 12.4046 14.163 12.9064 14.3295 13.2554L15 14.6647ZM15.294 21.1966C15.2579 21.2415 15.2129 21.2777 15.1621 21.3024C15.1113 21.3272 15.056 21.34 15 21.34C14.944 21.34 14.8887 21.3272 14.8379 21.3024C14.7871 21.2777 14.7421 21.2415 14.706 21.1966C13.5053 19.6983 12.4185 18.627 11.5238 17.7455C9.975 16.2181 9 15.2578 9 13.628C9 11.9225 10.3425 10.54 12 10.54C13.2 10.54 14.0393 11.3672 14.553 12.1218C14.748 12.4093 14.8965 12.6858 15 12.9033C15.1297 12.6312 15.2792 12.3699 15.447 12.1218C15.9608 11.3664 16.8 10.54 18 10.54C19.6575 10.54 21 11.9225 21 13.628C21 15.2578 20.025 16.2181 18.4763 17.7455C17.5815 18.6278 16.4948 19.6991 15.294 21.1958V21.1966Z" fill="#192144"/>
</g>
</g>
<defs>
<clipPath id="clip0_86_5049">
<rect width="12" height="12" fill="white" transform="translate(9 9.79004)"/>
</clipPath>
</defs>
</svg>
