<svg width="23" height="12" viewBox="0 0 23 12" fill="none" xmlns="http://www.w3.org/2000/svg">
<path d="M17.7664 11.8542C17.219 11.8419 16.6854 11.6812 16.2232 11.3893C15.7407 11.065 15.2975 10.6862 14.9026 10.2604C14.5761 9.93579 14.0345 9.38979 13.8268 9.38979C13.619 9.38979 13.4706 10.0686 13.478 10.5482C13.4812 10.8792 13.3564 11.1989 13.1293 11.441C12.8712 11.6507 12.5561 11.7791 12.2242 11.8099H10.7997C8.75222 11.7651 6.79178 10.9779 5.28708 9.59639C2.55676 7.10987 0.21224 2.35818 0.115789 2.15159C0.0237889 1.97899 -0.0147389 1.78317 0.00506792 1.58882C0.0248747 1.39447 0.102128 1.21031 0.227079 1.05958C0.509857 0.825057 0.867951 0.699369 1.23611 0.705422H4.26321H4.35224C4.6027 0.741762 4.84277 0.829721 5.05708 0.963666C5.25875 1.09815 5.42022 1.28422 5.5245 1.50229C5.8444 2.18336 6.2113 2.84161 6.62256 3.47232C7.5945 4.948 8.02482 5.2874 8.18063 5.36119C8.35396 4.66929 8.40169 3.95217 8.3216 3.24359C8.3476 2.92086 8.29412 2.5967 8.16579 2.29915C8.00289 2.16957 7.80288 2.09466 7.5945 2.08518L7.05289 1.57607C6.94901 1.0891 7.49063 0.66853 7.86902 0.506205C8.62414 0.270907 9.41638 0.175863 10.2061 0.225826H10.7329C11.2686 0.211953 11.8041 0.26149 12.328 0.373394C13.5893 0.639016 13.5448 1.64986 13.4929 2.81564C13.4929 3.15505 13.4558 3.55348 13.4558 4.01094C13.4558 4.12162 13.4558 4.23967 13.4558 4.36511C13.4266 4.68633 13.4492 5.01013 13.5226 5.3243C14.1402 4.81043 14.6604 4.1907 15.0584 3.49445C15.4879 2.83611 15.865 2.14535 16.1861 1.4285C16.2839 1.20178 16.4516 1.01177 16.6649 0.885809C16.8782 0.75985 17.1262 0.704442 17.3732 0.727557H20.5487C20.6425 0.718658 20.7369 0.718658 20.8306 0.727557C21.5726 0.727557 22.0103 0.941531 22.1884 1.35472C22.3664 1.76791 22.3145 2.57953 20.4374 4.75616L19.6955 5.58992C19.336 5.93702 19.0264 6.3318 18.7755 6.76308C19.0565 7.08078 19.3754 7.36324 19.7251 7.60422C20.5778 8.24318 21.3283 9.0069 21.951 9.86939C22.097 10.0371 22.1925 10.2423 22.2266 10.4616C22.2608 10.6808 22.2321 10.9052 22.1439 11.109C21.9884 11.3346 21.7803 11.5196 21.5375 11.6481C21.2946 11.7765 21.0241 11.8447 20.749 11.8468L17.9371 11.8837L17.7664 11.8542ZM13.8268 8.28303C14.4945 8.28303 15.0732 8.86593 15.689 9.47833C16.0217 9.83957 16.3951 10.1614 16.8019 10.4375C17.1096 10.641 17.4711 10.7489 17.8406 10.7474H17.9148L20.7342 10.7105C20.8732 10.7026 21.0094 10.6675 21.1348 10.6072L21.0606 10.4892C20.499 9.72803 19.8292 9.052 19.0722 8.48225C18.1893 7.74441 17.7368 7.39762 17.6848 6.82949C17.6329 6.26135 18.0484 5.767 18.8793 4.82994L19.6213 4.01094C20.2477 3.37556 20.7619 2.6397 21.1422 1.83432C20.9767 1.82455 20.8107 1.82455 20.6451 1.83432H17.4029C17.3443 1.82128 17.2835 1.82128 17.2248 1.83432C16.8814 2.61749 16.4719 3.37032 16.0006 4.08473C14.5984 6.16543 13.938 6.44581 13.4706 6.44581C13.3257 6.44581 13.183 6.41034 13.0551 6.34251C12.3132 5.92195 12.3132 4.98489 12.3577 4.30608C12.3577 4.1954 12.3577 4.08473 12.3577 3.98881C12.3577 3.50921 12.3577 3.09602 12.3948 2.74186C12.4542 1.50229 12.3948 1.49491 12.1129 1.4285C11.6586 1.33924 11.1958 1.29965 10.7329 1.31045H10.221C9.74988 1.30077 9.27872 1.32543 8.81127 1.38423C8.88206 1.43611 8.94459 1.49829 8.99676 1.56869C9.30278 2.04854 9.4554 2.60935 9.4345 3.17718C9.53095 4.39462 9.47902 5.98097 8.69256 6.36465C8.5533 6.42946 8.40115 6.46224 8.2474 6.46057C7.5574 6.46057 6.87482 5.81127 5.70998 4.05521C5.26298 3.38283 4.86383 2.68017 4.51547 1.95237L4.45611 1.87859C4.38118 1.84061 4.30126 1.81329 4.21869 1.79742H1.25095H1.19901C1.63676 2.69759 3.71418 6.68192 6.03643 8.77001C7.34044 9.9614 9.02993 10.6497 10.7997 10.7105H12.1722C12.2422 10.6957 12.3097 10.6708 12.3726 10.6367C12.3726 10.6367 12.3726 10.6367 12.3726 10.5703C12.3726 10.3711 12.3726 8.65195 13.5448 8.35682C13.6356 8.32127 13.7302 8.29651 13.8268 8.28303Z" fill="#192144"/>
</svg>
