<svg width="27" height="34" fill="none" xmlns="http://www.w3.org/2000/svg"><g clip-path="url(#a)"><path d="M13.643.101 13.5.086 0 1.464v24.102l13.5 7.823L27 25.566V1.464L13.643.101ZM25.234 24.59l-11.734 6.8-11.734-6.8v-9.88l11.685 6.774.02 1.228-8.017-4.646-.011 1.2 8.046 4.71.02 1.26-8.045-4.66-.01 1.2 8.046 4.71 8.124-4.734v-5.103l3.62-2.105-.01 10.046Zm0-11.327-3.22 1.842-1.482.857-7.065-4.101-.011 1.2 6.04 3.5-.053.03-.13.074-.86.482-4.986-2.888-.011 1.2 3.936 2.28-.933.598-.021.012-2.971-1.706-.011 1.2 1.947 1.11-1.988 1.163-11.618-6.731 11.638-6.815 11.8 6.693Zm0-1.2L13.44 5.288 1.766 12.055v-9.04l11.734-1.2 11.734 1.2v9.047Z" fill="#192144"/></g><defs><clipPath id="a"><path fill="#fff" transform="translate(0 .086)" d="M0 0h27v33.303H0z"/></clipPath></defs></svg>